<svg width="3848" height="1843" viewBox="0 0 3848 1843" fill="none" xmlns="http://www.w3.org/2000/svg">
<mask id="mask0_128_3" style="mask-type:alpha" maskUnits="userSpaceOnUse" x="0" y="0" width="3848" height="1843">
<rect width="3848" height="1842.67" fill="#00CA83"/>
</mask>
<g mask="url(#mask0_128_3)">
<rect x="1" y="3" width="3848" height="1842.67" fill="#00CA83"/>
<path d="M739.28 1775.74L239.021 1842.49" stroke="black" stroke-width="0.533333" stroke-miterlimit="10" stroke-linecap="round" stroke-linejoin="round"/>
<path d="M196.253 1628.49L180.43 1407.48L186.472 1389.81L211.717 1387.28L653.644 1362.26L974.201 1339.79" stroke="black" stroke-width="0.533333" stroke-miterlimit="10" stroke-linecap="round" stroke-linejoin="round"/>
<path d="M1424.17 1842.49L1431.65 1569.21L1427.82 1565.94L1418.9 1565.29L1337.58 1566.36L1311.33 1562.56" stroke="black" stroke-width="0.533333" stroke-miterlimit="10" stroke-linecap="round" stroke-linejoin="round"/>
<path d="M981.994 1596.16L1285.48 1575.26L1311.35 1562.56L1377.65 1494.51L2035.71 917.979L2083.19 882.593L2126.28 864.28L2341.08 798.053" stroke="black" stroke-width="0.533333" stroke-miterlimit="10" stroke-linecap="round" stroke-linejoin="round"/>
<path d="M1871.27 405L1868.01 436.38L1855.2 506.511L1833.68 534.128L1756.11 617.496L1674.36 699.679L1559.76 823.005" stroke="black" stroke-width="0.533333" stroke-miterlimit="10" stroke-linecap="round" stroke-linejoin="round"/>
<path d="M671.483 405L622.621 423.055L635.038 904.505" stroke="black" stroke-width="0.533333" stroke-miterlimit="10" stroke-linecap="round" stroke-linejoin="round"/>
<path d="M629.878 405L622.636 423.055L189.647 582.533L149.219 594.122L134.877 611.75L134.693 648.313L147.481 706.78L176.031 1165.89" stroke="black" stroke-width="0.533333" stroke-miterlimit="10" stroke-linecap="round" stroke-linejoin="round"/>
<path d="M635.023 904.503L649.185 1139.48L653.647 1362.27L667.168 1601.36" stroke="black" stroke-width="0.533333" stroke-miterlimit="10" stroke-linecap="round" stroke-linejoin="round"/>
<path d="M635.012 904.5L937.292 884.756L974.191 1339.79L988.743 1576.56L985.578 1585.41L981.961 1596.15L667.156 1601.36L196.246 1628.49L61.4824 1635.68" stroke="black" stroke-width="0.533333" stroke-miterlimit="10" stroke-linecap="round" stroke-linejoin="round"/>
<path d="M211.723 1387.29L179.481 1187.44L176.004 1165.89L649.188 1139.49" stroke="black" stroke-width="0.533333" stroke-miterlimit="10" stroke-linecap="round" stroke-linejoin="round"/>
<path d="M179.467 1187.43L61.4824 1191.61" stroke="black" stroke-width="0.533333" stroke-miterlimit="10" stroke-linecap="round" stroke-linejoin="round"/>
<path fill-rule="evenodd" clip-rule="evenodd" d="M738.795 1772.75L738.499 1772.71L738.202 1772.71L737.905 1772.73L215.096 1842.49H260.986L738.707 1778.75L739 1778.69L739.286 1778.61L739.563 1778.5L739.828 1778.37L740.078 1778.2L740.311 1778.02L740.524 1777.81L740.716 1777.58L740.885 1777.34L741.03 1777.08L741.148 1776.8L741.238 1776.52L741.3 1776.23L741.334 1775.93L741.338 1775.64L741.314 1775.34L741.26 1775.05L741.178 1774.76L741.068 1774.48L740.931 1774.22L740.769 1773.97L740.584 1773.74L740.376 1773.52L740.149 1773.33L739.904 1773.16L739.643 1773.02L739.37 1772.9L739.086 1772.81L738.795 1772.75Z" stroke="black" stroke-width="0.533333" stroke-miterlimit="10" stroke-linecap="round" stroke-linejoin="round"/>
<path fill-rule="evenodd" clip-rule="evenodd" d="M176.365 1407.4L176.372 1407.7L191.975 1625.62L60.457 1632.64V1638.71L195.384 1631.52L195.397 1631.52L666.25 1604.39L980.996 1599.19L981.079 1599.18L981.154 1599.18L1284.64 1578.28L1284.93 1578.24L1285.22 1578.18L1285.5 1578.09L1285.77 1577.97L1310.8 1565.69L1336.12 1569.36L1336.36 1569.38L1336.6 1569.39L1417.79 1568.32L1425.59 1568.89L1427.56 1570.57L1420.12 1842.48H1426.19L1433.67 1569.28L1433.66 1568.98L1433.62 1568.68L1433.56 1568.39L1433.46 1568.1L1433.34 1567.83L1433.19 1567.57L1433.02 1567.32L1432.82 1567.09L1432.6 1566.89L1428.76 1563.62L1428.51 1563.43L1428.24 1563.26L1427.95 1563.13L1427.65 1563.02L1427.34 1562.95L1427.02 1562.91L1418.1 1562.26L1417.84 1562.25L1336.76 1563.32L1316.64 1560.41L1378.69 1496.71L2036.58 920.335L2083.67 885.238L2126.29 867.129L2340.04 801.223V794.873L2124.35 861.375L2124.06 861.482L2080.96 879.795L2080.64 879.956L2080.33 880.154L2032.86 915.541L2032.67 915.691L1374.6 1492.22L1374.43 1492.39L1308.5 1560.06L1283.63 1572.26L985.272 1592.81L987.43 1586.4L990.585 1577.58L990.674 1577.29L990.732 1576.99L990.76 1576.68L990.757 1576.37L976.204 1339.6L976.203 1339.58L976.203 1339.58L976.202 1339.58L976.2 1339.54L939.301 884.514L939.263 884.221L939.197 883.934L939.103 883.655L938.983 883.386L938.837 883.13L938.666 882.889L938.474 882.666L938.26 882.462L938.028 882.281L937.779 882.123L937.516 881.989L937.242 881.882L936.958 881.802L936.668 881.75L936.374 881.726L936.079 881.731L636.945 901.269L624.665 425.149L679.193 405H661.683L626.937 417.839L632.087 405H625.548L619.262 420.674L187.639 579.645L147.317 591.204L147.026 591.304L146.747 591.432L146.482 591.589L146.234 591.771L146.006 591.977L145.8 592.206L131.457 609.834L131.283 610.07L131.133 610.323L131.007 610.588L130.908 610.865L130.837 611.15L130.793 611.44L130.777 611.734L130.593 648.296L130.61 648.63L130.663 648.96L143.401 707.199L171.938 1166.07L171.961 1166.29L171.971 1166.37L174.9 1184.52L60.457 1188.57V1194.64L175.875 1190.56L207.177 1384.58L185.137 1386.8L184.852 1386.84L184.572 1386.91L184.3 1387L184.038 1387.12L183.789 1387.27L183.555 1387.44L183.338 1387.63L183.14 1387.84L182.962 1388.06L182.807 1388.31L182.676 1388.56L182.57 1388.83L176.527 1406.5L176.444 1406.79L176.389 1407.09L176.365 1407.4ZM644.942 1136.62L177.807 1162.69L149.443 706.59L149.42 706.358L149.379 706.13L136.663 647.991L136.839 612.834L149.905 596.776L189.418 585.449L189.631 585.379L618.652 427.366L630.96 904.581L630.964 904.633L630.964 904.685L644.942 1136.62ZM187.681 1392.64L210.923 1390.3L649.758 1365.46L662.937 1598.5L198.035 1625.29L182.468 1407.88L187.681 1392.64ZM645.184 1142.69L649.524 1359.4L213.245 1384.09L181.439 1186.95L178.498 1168.73L645.184 1142.69ZM933.494 887.982L969.904 1336.98L655.586 1359.01L651.188 1139.42L651.184 1139.32L651.184 1139.31L651.183 1139.31L651.183 1139.3L637.203 907.334L933.494 887.982ZM669.002 1598.27L655.814 1365.08L970.336 1343.03L984.662 1576.13L981.707 1584.38L981.688 1584.44L978.754 1593.15L669.002 1598.27Z" stroke="black" stroke-width="0.533333" stroke-miterlimit="10" stroke-linecap="round" stroke-linejoin="round"/>
<path fill-rule="evenodd" clip-rule="evenodd" d="M1829.97 531.829L1752.54 615.04L1670.83 697.181L1670.75 697.268L1556.15 820.593L1555.93 820.859L1555.73 821.146L1555.56 821.45L1555.42 821.769L1555.32 822.1L1555.25 822.44L1555.21 822.786L1555.21 823.133L1555.23 823.479L1555.3 823.821L1555.39 824.154L1555.52 824.477L1555.68 824.785L1555.87 825.077L1556.09 825.348L1556.33 825.597L1556.6 825.821L1556.88 826.017L1557.19 826.185L1557.51 826.322L1557.84 826.427L1558.18 826.499L1558.52 826.537L1558.87 826.541L1559.22 826.512L1559.56 826.448L1559.89 826.352L1560.22 826.223L1560.52 826.063L1560.82 825.873L1561.09 825.656L1561.34 825.414L1675.9 702.132L1757.6 619.992L1757.69 619.907L1835.26 536.539L1835.46 536.303L1856.98 508.687L1857.17 508.408L1857.34 508.112L1857.48 507.801L1857.59 507.478L1857.67 507.147L1870.48 437.016L1870.52 436.746L1873.82 405H1866.7L1863.49 435.877L1850.86 505.019L1829.97 531.829Z" stroke="black" stroke-width="0.533333" stroke-miterlimit="10" stroke-linecap="round" stroke-linejoin="round"/>
<g filter="url(#filter0_d_128_3)">
<path fill-rule="evenodd" clip-rule="evenodd" d="M2128.38 473.14C2126.72 473.164 2125.4 474.527 2125.42 476.185L2125.75 498.135C2125.78 499.791 2127.14 501.114 2128.79 501.09L2185.29 500.271C2186.95 500.247 2188.27 498.883 2188.25 497.226L2187.92 475.276C2187.9 473.619 2186.53 472.297 2184.88 472.321L2128.38 473.14Z" fill="#F0F0F0" stroke="#000047" stroke-width="1.33333" stroke-miterlimit="10" stroke-linecap="round" stroke-linejoin="round"/>
<path fill-rule="evenodd" clip-rule="evenodd" d="M2012.66 545.224C2011 545.236 2009.67 546.589 2009.68 548.247L2009.77 560.09C2009.78 561.746 2011.13 563.079 2012.79 563.067L2184.51 561.853C2186.17 561.842 2187.5 560.488 2187.49 558.831L2187.4 547.01C2187.39 545.354 2186.03 544.021 2184.38 544.033L2012.66 545.224Z" fill="#F0F0F0" stroke="#000047" stroke-width="1.33333" stroke-miterlimit="10" stroke-linecap="round" stroke-linejoin="round"/>
<path fill-rule="evenodd" clip-rule="evenodd" d="M2009.16 430.384C2009.16 432.041 2010.49 433.39 2012.15 433.399L2183.88 434.256C2185.53 434.264 2186.88 432.928 2186.89 431.271L2186.95 419.88C2186.96 418.223 2185.62 416.873 2183.96 416.865L2176.03 416.825C2175.54 416.823 2175.14 416.422 2175.14 415.93C2175.15 415.438 2174.75 415.037 2174.26 415.034L2163.02 414.978C2162.45 414.976 2161.98 415.438 2161.98 416.011C2161.98 416.584 2161.51 417.046 2160.94 417.043L2148.64 416.982C2148.07 416.979 2147.61 416.512 2147.61 415.939C2147.61 415.366 2147.15 414.899 2146.58 414.896L2135.2 414.84C2134.63 414.837 2134.16 415.299 2134.16 415.872C2134.15 416.445 2133.69 416.907 2133.12 416.904L2122.47 416.851C2121.9 416.848 2121.44 416.382 2121.44 415.809C2121.44 415.235 2120.98 414.769 2120.41 414.766L2108.34 414.706C2107.64 414.702 2107.07 415.265 2107.07 415.962C2107.07 416.66 2106.5 417.223 2105.8 417.219L2090 417.14C2089.5 417.138 2089.11 416.737 2089.11 416.245C2089.11 415.753 2088.71 415.352 2088.22 415.349L2078.5 415.301C2077.84 415.298 2077.31 415.825 2077.31 416.479C2077.3 417.133 2076.77 417.661 2076.11 417.658L2063.07 417.592C2062.41 417.589 2061.88 417.056 2061.89 416.402C2061.89 415.748 2061.36 415.215 2060.71 415.212L2050.13 415.159C2049.43 415.156 2048.86 415.719 2048.86 416.416C2048.85 417.114 2048.29 417.677 2047.59 417.673L2036.82 417.619C2036.12 417.616 2035.56 417.047 2035.56 416.35C2035.56 415.652 2035 415.084 2034.3 415.08L2022.61 415.022C2022.16 415.02 2021.8 415.382 2021.8 415.83C2021.8 416.278 2021.43 416.64 2020.98 416.638L2012.23 416.594C2010.58 416.586 2009.23 417.922 2009.22 419.579L2009.16 430.384Z" fill="#F0F0F0" stroke="#000047" stroke-width="1.33333" stroke-miterlimit="10" stroke-linecap="round" stroke-linejoin="round"/>
<path fill-rule="evenodd" clip-rule="evenodd" d="M2133.96 881.397C2132.54 882.252 2132.08 884.104 2132.94 885.526L2150.45 914.4C2151.31 915.812 2153.14 916.266 2154.56 915.416L2170.7 905.731C2172.12 904.875 2172.58 903.023 2171.72 901.602L2154.2 872.746C2153.35 871.336 2151.51 870.881 2150.1 871.729L2133.96 881.397Z" fill="#F0F0F0" stroke="#000047" stroke-width="1.33333" stroke-miterlimit="10" stroke-linecap="round" stroke-linejoin="round"/>
<path fill-rule="evenodd" clip-rule="evenodd" d="M1677.21 784.265C1676.08 785.494 1676.18 787.401 1677.41 788.515L1693.72 803.231C1694.95 804.337 1696.84 804.245 1697.95 803.026L1708.11 791.893C1709.22 790.675 1711.11 790.583 1712.33 791.687L1723.41 801.668C1724.63 802.772 1726.52 802.68 1727.63 801.461L1747.52 779.667C1748.65 778.437 1748.55 776.53 1747.32 775.416L1734.99 764.305C1733.75 763.191 1733.66 761.284 1734.78 760.055L1747.16 746.483C1748.28 745.254 1748.18 743.347 1746.95 742.233L1731.12 727.968C1729.9 726.863 1728.01 726.955 1726.9 728.173L1713.26 743.104C1712.15 744.322 1710.27 744.414 1709.04 743.309L1708.36 742.697C1707.14 741.592 1705.25 741.685 1704.14 742.903L1693.1 754.999C1691.98 756.227 1692.07 758.133 1693.31 759.248L1694.76 760.558C1696 761.673 1696.09 763.579 1694.97 764.808L1677.21 784.265Z" fill="#F0F0F0" stroke="#000047" stroke-width="1.33333" stroke-miterlimit="10" stroke-linecap="round" stroke-linejoin="round"/>
<path fill-rule="evenodd" clip-rule="evenodd" d="M1888.37 510.374C1886.71 510.433 1885.42 511.823 1885.47 513.478L1885.85 524.109C1885.91 525.765 1887.3 527.06 1888.95 527.002L1890.75 526.938C1892.4 526.879 1893.7 525.49 1893.64 523.834L1893.26 513.203C1893.2 511.547 1891.81 510.252 1890.16 510.311L1888.37 510.374Z" fill="#F0F0F0" stroke="#000047" stroke-width="1.33333" stroke-miterlimit="10" stroke-linecap="round" stroke-linejoin="round"/>
<path fill-rule="evenodd" clip-rule="evenodd" d="M1892.1 544.445C1890.44 544.494 1889.14 545.877 1889.19 547.533L1889.56 560.105C1889.61 561.76 1890.99 563.062 1892.65 563.014L1984.1 560.359C1985.75 560.311 1987.06 558.926 1987.01 557.268L1986.75 548.841C1986.7 547.19 1985.32 545.891 1983.67 545.934L1972.99 546.213C1971.33 546.256 1969.96 544.949 1969.91 543.293L1969.84 540.739C1969.8 539.083 1968.42 537.776 1966.77 537.819L1962.59 537.928C1960.93 537.971 1959.63 539.35 1959.67 541.006L1959.74 543.533C1959.78 545.19 1958.47 546.568 1956.81 546.611L1920.98 547.534C1919.33 547.576 1917.96 546.276 1917.91 544.624L1917.8 540.997C1917.75 539.342 1916.37 538.039 1914.71 538.088L1911.34 538.187C1909.77 538.233 1908.53 539.541 1908.57 541.113C1908.61 542.684 1907.37 543.993 1905.8 544.039L1892.1 544.445Z" fill="#F0F0F0" stroke="#000047" stroke-width="1.33333" stroke-miterlimit="10" stroke-linecap="round" stroke-linejoin="round"/>
<path fill-rule="evenodd" clip-rule="evenodd" d="M1892.59 413.001C1890.93 413 1889.59 414.344 1889.59 416.002L1889.59 431.183C1889.6 432.839 1890.94 434.181 1892.59 434.182L1906.66 434.189C1908.31 434.19 1909.65 435.533 1909.65 437.189L1909.65 440.01C1909.65 441.667 1911 443.01 1912.66 443.01L1915.55 443.009C1917 443.008 1918.18 441.832 1918.18 440.381C1918.18 438.929 1919.36 437.752 1920.81 437.753L1962.04 437.759C1963.52 437.759 1964.72 438.961 1964.72 440.443C1964.72 441.925 1965.92 443.128 1967.4 443.128L1970.96 443.128C1972.61 443.128 1973.96 441.786 1973.96 440.129L1973.96 436.834C1973.96 435.178 1975.3 433.835 1976.96 433.835L1992.83 433.832C1994.48 433.832 1995.82 432.49 1995.82 430.834L1995.84 416.035C1995.84 414.378 1994.49 413.034 1992.84 413.033L1892.59 413.001Z" fill="#F0F0F0" stroke="#000047" stroke-width="1.33333" stroke-miterlimit="10" stroke-linecap="round" stroke-linejoin="round"/>
<path fill-rule="evenodd" clip-rule="evenodd" d="M1826.1 440.032C1825.83 441.67 1826.94 443.215 1828.58 443.481L1831.42 443.94C1833.05 444.205 1834.59 443.098 1834.86 441.466L1835.22 439.273C1835.49 437.635 1834.38 436.09 1832.74 435.824L1829.9 435.364C1828.27 435.1 1826.73 436.207 1826.46 437.839L1826.1 440.032Z" fill="#F0F0F0" stroke="#000047" stroke-width="1.33333" stroke-miterlimit="10" stroke-linecap="round" stroke-linejoin="round"/>
<path fill-rule="evenodd" clip-rule="evenodd" d="M1820.52 469.875C1820.33 471.268 1821.3 472.557 1822.69 472.754L1825.28 473.119C1826.67 473.315 1827.95 472.349 1828.15 470.96C1828.35 469.572 1827.38 468.285 1826 468.085L1823.41 467.712C1822.01 467.512 1820.72 468.48 1820.52 469.875Z" fill="#F0F0F0" stroke="#000047" stroke-width="1.33333" stroke-miterlimit="10" stroke-linecap="round" stroke-linejoin="round"/>
<path fill-rule="evenodd" clip-rule="evenodd" d="M1815.29 475.425C1814.85 476.704 1815.53 478.103 1816.81 478.541L1820.56 479.822C1821.83 480.256 1823.22 479.582 1823.66 478.313C1824.11 477.033 1823.42 475.635 1822.14 475.197L1818.39 473.915C1817.12 473.481 1815.74 474.155 1815.29 475.425Z" fill="#F0F0F0" stroke="#000047" stroke-width="1.33333" stroke-miterlimit="10" stroke-linecap="round" stroke-linejoin="round"/>
<path fill-rule="evenodd" clip-rule="evenodd" d="M1814.55 484.114C1814.11 485.71 1815.04 487.365 1816.64 487.808L1819.07 488.481C1820.66 488.922 1822.31 487.994 1822.76 486.403L1822.81 486.211C1823.26 484.611 1822.32 482.95 1820.72 482.507L1818.29 481.835C1816.7 481.394 1815.05 482.328 1814.6 483.923L1814.55 484.114Z" fill="#F0F0F0" stroke="#000047" stroke-width="1.33333" stroke-miterlimit="10" stroke-linecap="round" stroke-linejoin="round"/>
<path fill-rule="evenodd" clip-rule="evenodd" d="M1804.01 497.439C1803.19 498.58 1803.45 500.172 1804.6 500.988L1808.67 503.886C1809.8 504.694 1811.38 504.434 1812.19 503.303C1813.02 502.162 1812.75 500.57 1811.61 499.754L1807.54 496.856C1806.4 496.048 1804.82 496.308 1804.01 497.439Z" fill="#F0F0F0" stroke="#000047" stroke-width="1.33333" stroke-miterlimit="10" stroke-linecap="round" stroke-linejoin="round"/>
<path fill-rule="evenodd" clip-rule="evenodd" d="M1810.02 491.627C1809.23 493.091 1809.78 494.918 1811.25 495.7L1812.97 496.615C1814.42 497.39 1816.23 496.846 1817.01 495.397L1817.24 494.974C1818.04 493.513 1817.49 491.686 1816.02 490.9L1814.31 489.98C1812.85 489.199 1811.04 489.744 1810.25 491.199L1810.02 491.627Z" fill="#F0F0F0" stroke="#000047" stroke-width="1.33333" stroke-miterlimit="10" stroke-linecap="round" stroke-linejoin="round"/>
<path fill-rule="evenodd" clip-rule="evenodd" d="M1799.5 503.1C1798.59 504.176 1798.73 505.788 1799.81 506.696L1802.47 508.939C1803.54 509.838 1805.14 509.707 1806.04 508.645C1806.96 507.573 1806.83 505.961 1805.75 505.051L1803.09 502.803C1802.02 501.897 1800.41 502.03 1799.5 503.1Z" fill="#F0F0F0" stroke="#000047" stroke-width="1.33333" stroke-miterlimit="10" stroke-linecap="round" stroke-linejoin="round"/>
<path fill-rule="evenodd" clip-rule="evenodd" d="M1792.92 507.882C1791.72 509.036 1791.69 510.949 1792.85 512.141L1795.36 514.716C1796.51 515.894 1798.4 515.925 1799.59 514.784L1799.65 514.721C1800.85 513.567 1800.89 511.654 1799.72 510.461L1797.21 507.887C1796.06 506.708 1794.17 506.678 1792.98 507.818L1792.92 507.882Z" fill="#F0F0F0" stroke="#000047" stroke-width="1.33333" stroke-miterlimit="10" stroke-linecap="round" stroke-linejoin="round"/>
<path fill-rule="evenodd" clip-rule="evenodd" d="M1786.4 516.577C1785.38 517.892 1785.63 519.781 1786.95 520.791L1789.63 522.844C1790.94 523.848 1792.82 523.603 1793.83 522.296L1793.97 522.109C1794.99 520.791 1794.74 518.895 1793.42 517.887L1790.73 515.843C1789.41 514.845 1787.54 515.094 1786.53 516.399L1786.4 516.577Z" fill="#F0F0F0" stroke="#000047" stroke-width="1.33333" stroke-miterlimit="10" stroke-linecap="round" stroke-linejoin="round"/>
<path fill-rule="evenodd" clip-rule="evenodd" d="M1689.56 543.569C1689.55 545.226 1690.89 546.576 1692.54 546.584L1702.12 546.632C1703.77 546.64 1705.12 545.304 1705.13 543.647L1705.15 539.542C1705.16 537.885 1703.82 536.535 1702.17 536.527L1692.59 536.479C1690.94 536.471 1689.59 537.807 1689.58 539.464L1689.56 543.569Z" fill="#F0F0F0" stroke="#000047" stroke-width="1.33333" stroke-miterlimit="10" stroke-linecap="round" stroke-linejoin="round"/>
<path fill-rule="evenodd" clip-rule="evenodd" d="M1609.02 609.505C1608.99 611.161 1610.31 612.525 1611.97 612.552L1625.71 612.777C1627.37 612.805 1628.73 611.483 1628.76 609.825L1629.52 561.716C1629.54 560.06 1630.91 558.738 1632.56 558.764L1673.84 559.403C1675.49 559.429 1676.86 558.106 1676.88 556.45L1677.16 538.654C1677.18 536.997 1675.86 535.634 1674.2 535.608L1613.18 534.666C1611.53 534.641 1610.16 535.963 1610.14 537.619L1609.02 609.505Z" fill="#F0F0F0" stroke="#000047" stroke-width="1.33333" stroke-miterlimit="10" stroke-linecap="round" stroke-linejoin="round"/>
<path fill-rule="evenodd" clip-rule="evenodd" d="M1579.19 559.46C1577.53 559.476 1576.2 560.832 1576.21 562.489L1576.3 571.693C1576.32 573.35 1577.68 574.68 1579.33 574.664L1605.64 574.41C1607.3 574.394 1608.63 573.038 1608.61 571.381L1608.52 562.177C1608.51 560.52 1607.15 559.19 1605.49 559.206L1579.19 559.46Z" fill="#F0F0F0" stroke="#000047" stroke-width="1.33333" stroke-miterlimit="10" stroke-linecap="round" stroke-linejoin="round"/>
<path fill-rule="evenodd" clip-rule="evenodd" d="M1623.13 848.113C1622.22 849.503 1622.61 851.37 1624.01 852.276L1637.7 861.169C1639.09 862.068 1640.94 861.68 1641.84 860.299L1646.24 853.602C1647.15 852.212 1646.76 850.345 1645.36 849.439L1631.67 840.546C1630.29 839.647 1628.44 840.035 1627.53 841.416L1623.13 848.113Z" fill="#F0F0F0" stroke="#000047" stroke-width="1.33333" stroke-miterlimit="10" stroke-linecap="round" stroke-linejoin="round"/>
<path fill-rule="evenodd" clip-rule="evenodd" d="M1560.46 1133.69C1559.26 1134.85 1559.24 1136.76 1560.41 1137.95L1597.87 1176.06C1599.02 1177.23 1600.91 1177.25 1602.1 1176.11L1648.06 1131.48C1649.25 1130.32 1649.28 1128.41 1648.11 1127.22L1610.63 1089.11C1609.47 1087.93 1607.58 1087.91 1606.4 1089.06L1560.46 1133.69Z" fill="#F0F0F0" stroke="#000047" stroke-width="1.33333" stroke-miterlimit="10" stroke-linecap="round" stroke-linejoin="round"/>
<path fill-rule="evenodd" clip-rule="evenodd" d="M1350.94 1072.92C1349.29 1073.08 1348.09 1074.55 1348.25 1076.2L1349.08 1084.6C1349.24 1086.25 1350.71 1087.45 1352.36 1087.29L1363.74 1086.16C1365.38 1086 1366.59 1084.53 1366.42 1082.88L1365.59 1074.49C1365.43 1072.85 1363.96 1071.64 1362.32 1071.81L1350.94 1072.92Z" fill="#F0F0F0" stroke="#000047" stroke-width="1.33333" stroke-miterlimit="10" stroke-linecap="round" stroke-linejoin="round"/>
<path fill-rule="evenodd" clip-rule="evenodd" d="M1367.23 1296.1C1365.9 1297.11 1365.65 1299 1366.66 1300.32L1373.46 1309.16C1374.48 1310.48 1374.23 1312.38 1372.9 1313.38L1368.08 1317.04C1366.75 1318.05 1366.5 1319.94 1367.51 1321.26L1385.98 1345.33C1386.99 1346.63 1388.86 1346.89 1390.17 1345.89L1395.82 1341.62C1397.13 1340.63 1399 1340.88 1400.01 1342.18L1409.89 1355.03C1410.9 1356.34 1412.77 1356.59 1414.09 1355.59L1419.86 1351.2C1421.18 1350.2 1423.05 1350.45 1424.06 1351.76L1426.19 1354.53C1427.19 1355.83 1429.06 1356.09 1430.38 1355.09L1447.82 1341.86C1449.14 1340.86 1449.4 1338.96 1448.38 1337.65L1446.03 1334.57C1445.01 1333.25 1445.27 1331.36 1446.59 1330.36L1452.7 1325.71C1454.02 1324.71 1454.27 1322.82 1453.26 1321.5L1443.15 1308.33C1442.13 1307.01 1442.39 1305.12 1443.71 1304.11L1446.81 1301.75C1448.14 1300.75 1448.39 1298.85 1447.38 1297.54L1418.98 1260.56C1417.97 1259.25 1416.1 1259 1414.79 1260L1367.23 1296.1Z" fill="#F0F0F0" stroke="#000047" stroke-width="1.33333" stroke-miterlimit="10" stroke-linecap="round" stroke-linejoin="round"/>
<path fill-rule="evenodd" clip-rule="evenodd" d="M1329.55 1112.19C1329.5 1113.85 1330.8 1115.24 1332.46 1115.29L1337.97 1115.45C1339.63 1115.5 1341.01 1114.2 1341.06 1112.55L1341.25 1106.55C1341.3 1104.89 1340 1103.51 1338.34 1103.46L1332.83 1103.29C1331.17 1103.24 1329.79 1104.54 1329.74 1106.19L1329.55 1112.19Z" fill="#F0F0F0" stroke="#000047" stroke-width="1.33333" stroke-miterlimit="10" stroke-linecap="round" stroke-linejoin="round"/>
<path fill-rule="evenodd" clip-rule="evenodd" d="M1328.38 1122.75C1326.72 1122.75 1325.38 1124.1 1325.39 1125.76L1325.43 1138.05C1325.44 1139.71 1326.79 1141.05 1328.44 1141.04L1336.66 1141.02C1338.31 1141.01 1339.65 1139.67 1339.65 1138.01L1339.62 1125.72C1339.62 1124.06 1338.27 1122.72 1336.61 1122.73L1328.38 1122.75Z" fill="#F0F0F0" stroke="#000047" stroke-width="1.33333" stroke-miterlimit="10" stroke-linecap="round" stroke-linejoin="round"/>
<path fill-rule="evenodd" clip-rule="evenodd" d="M1300.61 1150.22C1298.98 1150.55 1297.93 1152.14 1298.27 1153.77L1300.95 1166.68C1301.29 1168.3 1302.87 1169.34 1304.49 1169.01L1310.97 1167.68C1312.59 1167.35 1313.64 1165.76 1313.3 1164.13L1310.62 1151.22C1310.28 1149.6 1308.7 1148.56 1307.08 1148.89L1300.61 1150.22Z" fill="#F0F0F0" stroke="#000047" stroke-width="1.33333" stroke-miterlimit="10" stroke-linecap="round" stroke-linejoin="round"/>
<path fill-rule="evenodd" clip-rule="evenodd" d="M1284.37 1152.28C1282.76 1152.68 1281.78 1154.32 1282.2 1155.93L1283.49 1160.98C1283.9 1162.58 1285.52 1163.55 1287.13 1163.15L1289.73 1162.49C1291.34 1162.09 1292.32 1160.45 1291.9 1158.84L1290.61 1153.79C1290.2 1152.19 1288.58 1151.22 1286.97 1151.62L1284.37 1152.28Z" fill="#F0F0F0" stroke="#000047" stroke-width="1.33333" stroke-miterlimit="10" stroke-linecap="round" stroke-linejoin="round"/>
<path fill-rule="evenodd" clip-rule="evenodd" d="M1288.11 1123.7C1286.52 1124.2 1285.64 1125.89 1286.15 1127.48L1287.62 1132.11C1288.12 1133.68 1289.8 1134.56 1291.38 1134.06L1296.79 1132.37C1298.37 1131.87 1299.25 1130.18 1298.75 1128.6L1297.29 1123.96C1296.79 1122.38 1295.11 1121.5 1293.53 1122L1288.11 1123.7Z" fill="#F0F0F0" stroke="#000047" stroke-width="1.33333" stroke-miterlimit="10" stroke-linecap="round" stroke-linejoin="round"/>
<path fill-rule="evenodd" clip-rule="evenodd" d="M1283.49 1112.8C1281.91 1113.29 1281.02 1114.98 1281.52 1116.56L1282.69 1120.28C1283.18 1121.86 1284.86 1122.74 1286.43 1122.25L1298.69 1118.47C1300.27 1117.98 1301.95 1118.86 1302.44 1120.44L1303.53 1123.95C1304.03 1125.53 1305.7 1126.41 1307.28 1125.93L1307.55 1125.84C1309.14 1125.36 1310.03 1123.67 1309.53 1122.08L1305.49 1109.13C1304.99 1107.55 1303.32 1106.67 1301.74 1107.16L1283.49 1112.8Z" fill="#F0F0F0" stroke="#000047" stroke-width="1.33333" stroke-miterlimit="10" stroke-linecap="round" stroke-linejoin="round"/>
<path fill-rule="evenodd" clip-rule="evenodd" d="M1262.39 1134.46C1260.87 1135.13 1260.18 1136.9 1260.85 1138.43L1261.84 1140.67C1262.51 1142.18 1264.27 1142.87 1265.78 1142.21L1270.3 1140.23C1271.83 1139.57 1272.52 1137.79 1271.85 1136.27L1270.85 1134.03C1270.19 1132.52 1268.42 1131.83 1266.91 1132.49L1262.39 1134.46Z" fill="#F0F0F0" stroke="#000047" stroke-width="1.33333" stroke-miterlimit="10" stroke-linecap="round" stroke-linejoin="round"/>
<path fill-rule="evenodd" clip-rule="evenodd" d="M1259.36 1125.82C1257.81 1126.4 1257.02 1128.14 1257.61 1129.69L1258.25 1131.38C1258.84 1132.93 1260.57 1133.71 1262.12 1133.12L1278.05 1127.11C1279.6 1126.53 1280.39 1124.79 1279.79 1123.24L1279.16 1121.57C1278.57 1120.02 1276.84 1119.25 1275.3 1119.83L1259.36 1125.82Z" fill="#F0F0F0" stroke="#000047" stroke-width="1.33333" stroke-miterlimit="10" stroke-linecap="round" stroke-linejoin="round"/>
<path fill-rule="evenodd" clip-rule="evenodd" d="M1242.38 1166.68C1242.31 1168.34 1243.6 1169.74 1245.26 1169.8L1261.04 1170.44C1262.69 1170.51 1264.08 1169.22 1264.16 1167.57L1264.33 1163.48C1264.4 1161.82 1263.11 1160.42 1261.46 1160.35L1245.68 1159.7C1244.03 1159.64 1242.63 1160.92 1242.56 1162.57L1242.38 1166.68Z" fill="#F0F0F0" stroke="#000047" stroke-width="1.33333" stroke-miterlimit="10" stroke-linecap="round" stroke-linejoin="round"/>
<path fill-rule="evenodd" clip-rule="evenodd" d="M1213.2 1167.86C1213.13 1169.52 1214.42 1170.92 1216.08 1170.98L1223.83 1171.29C1225.48 1171.35 1226.88 1170.07 1226.94 1168.41L1227.62 1151.85C1227.68 1150.2 1226.39 1148.8 1224.74 1148.74L1216.99 1148.43C1215.34 1148.36 1213.94 1149.65 1213.87 1151.31L1213.2 1167.86Z" fill="#F0F0F0" stroke="#000047" stroke-width="1.33333" stroke-miterlimit="10" stroke-linecap="round" stroke-linejoin="round"/>
<path fill-rule="evenodd" clip-rule="evenodd" d="M1076.4 1009.74C1076.31 1011.39 1077.59 1012.81 1079.25 1012.89L1080.43 1012.94C1082.09 1013.03 1083.49 1011.75 1083.57 1010.09L1083.68 1007.78C1083.76 1006.13 1082.49 1004.72 1080.84 1004.64L1079.67 1004.57C1078.01 1004.49 1076.6 1005.76 1076.52 1007.42L1076.4 1009.74Z" fill="#F0F0F0" stroke="#000047" stroke-width="1.33333" stroke-miterlimit="10" stroke-linecap="round" stroke-linejoin="round"/>
<path fill-rule="evenodd" clip-rule="evenodd" d="M1080.24 1053.92C1078.59 1054.07 1077.36 1055.52 1077.51 1057.18L1078.54 1068.89C1078.69 1070.54 1080.14 1071.76 1081.79 1071.62L1085.9 1071.26C1087.55 1071.12 1088.78 1069.66 1088.63 1068.01L1087.6 1056.29C1087.45 1054.64 1086 1053.43 1084.35 1053.57L1080.24 1053.92Z" fill="#F0F0F0" stroke="#000047" stroke-width="1.33333" stroke-miterlimit="10" stroke-linecap="round" stroke-linejoin="round"/>
<path fill-rule="evenodd" clip-rule="evenodd" d="M997.416 1160.13C995.758 1160.15 994.432 1161.51 994.455 1163.17L994.65 1177.7C994.673 1179.36 996.034 1180.68 997.69 1180.66L1041.94 1180.07C1043.6 1180.04 1044.96 1181.37 1044.98 1183.02L1046.41 1289.68C1046.43 1291.34 1045.11 1292.7 1043.45 1292.72L1001.59 1293.28C999.932 1293.3 998.607 1294.66 998.629 1296.32L998.874 1314.71C998.896 1316.36 1000.26 1317.69 1001.91 1317.67L1064.13 1316.85C1065.78 1316.83 1067.11 1315.46 1067.09 1313.81L1065.05 1162.26C1065.03 1160.6 1063.67 1159.28 1062.01 1159.3L997.416 1160.13Z" fill="#F0F0F0" stroke="#000047" stroke-width="1.33333" stroke-miterlimit="10" stroke-linecap="round" stroke-linejoin="round"/>
<path fill-rule="evenodd" clip-rule="evenodd" d="M1023.66 1024.71C1022.01 1024.76 1020.7 1026.15 1020.76 1027.8L1021.51 1051.81C1021.56 1053.47 1022.95 1054.77 1024.6 1054.72L1038.34 1054.28C1039.99 1054.23 1041.38 1055.53 1041.43 1057.18L1042.01 1074.95C1042.06 1076.6 1043.44 1077.9 1045.1 1077.85L1060.01 1077.4C1061.67 1077.34 1062.97 1075.96 1062.92 1074.3L1061.39 1026.54C1061.34 1024.88 1059.96 1023.58 1058.3 1023.64L1023.66 1024.71Z" fill="#F0F0F0" stroke="#000047" stroke-width="1.33333" stroke-miterlimit="10" stroke-linecap="round" stroke-linejoin="round"/>
<path fill-rule="evenodd" clip-rule="evenodd" d="M1032.23 1066.53C1030.57 1066.61 1029.29 1068.01 1029.36 1069.66L1029.55 1074.05C1029.63 1075.7 1031.03 1076.98 1032.68 1076.91L1036.84 1076.73C1038.5 1076.66 1039.78 1075.25 1039.7 1073.59L1039.5 1069.21C1039.42 1067.56 1038.02 1066.28 1036.37 1066.35L1032.23 1066.53Z" fill="#F0F0F0" stroke="#000047" stroke-width="1.33333" stroke-miterlimit="10" stroke-linecap="round" stroke-linejoin="round"/>
<path fill-rule="evenodd" clip-rule="evenodd" d="M1002.22 988.208C1000.67 988.266 999.451 989.578 999.511 991.136C999.571 992.693 1000.88 993.907 1002.44 993.848L1005.77 993.722C1007.33 993.664 1008.54 992.352 1008.48 990.794C1008.42 989.237 1007.11 988.023 1005.56 988.082L1002.22 988.208Z" fill="#F0F0F0" stroke="#000047" stroke-width="1.33333" stroke-miterlimit="10" stroke-linecap="round" stroke-linejoin="round"/>
<path fill-rule="evenodd" clip-rule="evenodd" d="M1019.03 913.427C1017.38 913.474 1016.07 914.855 1016.12 916.512L1016.63 934.27C1016.68 935.926 1018.06 937.23 1019.71 937.183L1044.22 936.49C1045.88 936.443 1047.26 937.747 1047.31 939.403L1048.16 969.343C1048.21 971 1046.9 972.381 1045.25 972.427L1022.55 973.063C1020.89 973.109 1019.59 974.49 1019.63 976.146L1020.15 994.512C1020.19 996.169 1021.57 997.474 1023.23 997.427L1072.84 996.025C1074.5 995.978 1075.8 994.598 1075.75 992.941L1075.32 977.553C1075.27 975.897 1076.58 974.516 1078.23 974.47L1100.93 973.834C1102.59 973.787 1103.89 972.406 1103.84 970.749L1102.84 935.462C1102.79 933.807 1101.41 932.503 1099.76 932.549L1077.05 933.185C1075.4 933.231 1074.02 931.929 1073.97 930.274L1073.52 914.877C1073.47 913.223 1072.09 911.92 1070.43 911.967L1019.03 913.427Z" fill="#F0F0F0" stroke="#000047" stroke-width="1.33333" stroke-miterlimit="10" stroke-linecap="round" stroke-linejoin="round"/>
<path fill-rule="evenodd" clip-rule="evenodd" d="M1013.36 802.062C1011.71 802.116 1010.41 803.502 1010.46 805.158L1011.02 822.33C1011.08 823.986 1012.46 825.285 1014.12 825.231L1027.85 824.781C1029.5 824.727 1030.89 826.025 1030.94 827.681L1032.53 875.739C1032.58 877.395 1031.29 878.782 1029.63 878.836L1017.1 879.247C1015.45 879.301 1014.15 880.687 1014.2 882.343L1014.76 899.496C1014.82 901.151 1016.2 902.449 1017.86 902.396L1038.17 901.749C1039.82 901.696 1041.13 900.308 1041.07 898.649L1040.98 896.037C1040.92 894.38 1042.22 892.991 1043.88 892.937L1054.01 892.605C1055.67 892.551 1056.97 891.164 1056.91 889.508L1054.34 811.465C1054.29 809.81 1052.9 808.512 1051.25 808.565L1039.61 808.939C1037.96 808.992 1036.57 807.693 1036.52 806.038L1036.46 804.317C1036.41 802.661 1035.02 801.363 1033.36 801.416L1013.36 802.062Z" fill="#F0F0F0" stroke="#000047" stroke-width="1.33333" stroke-miterlimit="10" stroke-linecap="round" stroke-linejoin="round"/>
<path fill-rule="evenodd" clip-rule="evenodd" d="M820.899 1099.2C819.244 1099.2 817.902 1100.54 817.9 1102.19L817.892 1108.08C817.89 1109.74 819.235 1111.08 820.894 1111.08L865.162 1111.07C866.817 1111.07 868.159 1109.73 868.161 1108.07L868.168 1102.18C868.17 1100.52 866.826 1099.18 865.167 1099.18L820.899 1099.2Z" fill="#F0F0F0" stroke="#000047" stroke-width="1.33333" stroke-miterlimit="10" stroke-linecap="round" stroke-linejoin="round"/>
<path fill-rule="evenodd" clip-rule="evenodd" d="M790.761 1045.4C789.105 1045.48 787.829 1046.89 787.913 1048.55L789.681 1083.64C789.764 1085.3 791.172 1086.57 792.825 1086.49L913.463 1080.52C915.118 1080.43 916.393 1079.03 916.311 1077.37L914.561 1042.28C914.479 1040.62 913.071 1039.35 911.417 1039.43L790.761 1045.4Z" fill="#F0F0F0" stroke="#000047" stroke-width="1.33333" stroke-miterlimit="10" stroke-linecap="round" stroke-linejoin="round"/>
<path fill-rule="evenodd" clip-rule="evenodd" d="M919.672 1034.07C918.016 1034.12 916.715 1035.5 916.768 1037.16L918.004 1075.77C918.057 1077.42 919.441 1078.72 921.096 1078.67L926.257 1078.51C927.914 1078.45 929.214 1077.07 929.161 1075.41L927.925 1036.81C927.872 1035.15 926.488 1033.85 924.833 1033.9L919.672 1034.07Z" fill="#F0F0F0" stroke="#000047" stroke-width="1.33333" stroke-miterlimit="10" stroke-linecap="round" stroke-linejoin="round"/>
<path fill-rule="evenodd" clip-rule="evenodd" d="M930.469 1093.6C928.81 1093.65 927.512 1095.05 927.573 1096.71L927.647 1098.73C927.708 1100.39 929.099 1101.68 930.755 1101.62L933.997 1101.5C935.653 1101.44 936.947 1100.05 936.886 1098.4L936.811 1096.37C936.751 1094.72 935.364 1093.43 933.711 1093.49L930.469 1093.6Z" fill="#F0F0F0" stroke="#000047" stroke-width="1.33333" stroke-miterlimit="10" stroke-linecap="round" stroke-linejoin="round"/>
<path fill-rule="evenodd" clip-rule="evenodd" d="M822.255 1306.46C820.598 1306.48 819.264 1307.83 819.274 1309.48L819.335 1319.82C819.345 1321.47 820.693 1322.81 822.348 1322.8L828.308 1322.78C829.966 1322.77 831.304 1321.42 831.294 1319.76L831.233 1309.41C831.223 1307.75 829.871 1306.42 828.214 1306.43L822.255 1306.46Z" fill="#F0F0F0" stroke="#000047" stroke-width="1.33333" stroke-miterlimit="10" stroke-linecap="round" stroke-linejoin="round"/>
<path fill-rule="evenodd" clip-rule="evenodd" d="M809.16 1100.45C807.502 1100.52 806.212 1101.91 806.281 1103.57L806.49 1108.58C806.558 1110.24 807.956 1111.52 809.612 1111.45L813.771 1111.28C815.426 1111.21 816.712 1109.81 816.643 1108.16L816.435 1103.16C816.366 1101.51 814.972 1100.22 813.319 1100.29L809.16 1100.45Z" fill="#F0F0F0" stroke="#000047" stroke-width="1.33333" stroke-miterlimit="10" stroke-linecap="round" stroke-linejoin="round"/>
<path fill-rule="evenodd" clip-rule="evenodd" d="M792.316 1318.74C792.266 1320.4 793.571 1321.78 795.23 1321.83L805.647 1322.13C807.303 1322.17 808.683 1320.87 808.731 1319.22L809.041 1308.59C809.089 1306.93 807.787 1305.55 806.132 1305.5L795.728 1305.19C794.073 1305.14 792.691 1306.44 792.641 1308.1L792.316 1318.74Z" fill="#F0F0F0" stroke="#000047" stroke-width="1.33333" stroke-miterlimit="10" stroke-linecap="round" stroke-linejoin="round"/>
<path fill-rule="evenodd" clip-rule="evenodd" d="M760.554 1308.39C760.546 1310.04 761.882 1311.39 763.539 1311.4L768.472 1311.43C770.128 1311.44 771.478 1310.1 771.487 1308.44L771.534 1299.01C771.542 1297.36 770.206 1296.01 768.549 1296L763.616 1295.97C761.959 1295.97 760.61 1297.3 760.601 1298.96L760.554 1308.39Z" fill="#F0F0F0" stroke="#000047" stroke-width="1.33333" stroke-miterlimit="10" stroke-linecap="round" stroke-linejoin="round"/>
<path fill-rule="evenodd" clip-rule="evenodd" d="M676.651 1218.62C674.994 1218.66 673.687 1220.04 673.733 1221.7L674.757 1259.09C674.802 1260.74 676.18 1262.05 677.835 1262L704.618 1261.29C706.275 1261.25 707.654 1262.55 707.697 1264.21L707.915 1272.67C707.958 1274.33 709.337 1275.64 710.993 1275.59L717.717 1275.42C719.112 1275.38 720.273 1276.48 720.309 1277.88C720.345 1279.27 721.506 1280.37 722.901 1280.34L724.632 1280.29C726.287 1280.25 727.664 1281.55 727.709 1283.21L727.96 1292.33C728.005 1293.99 729.384 1295.29 731.039 1295.25L774.604 1294.08C776.261 1294.03 777.567 1292.65 777.523 1291L776.555 1255.1C776.511 1253.45 775.131 1252.14 773.474 1252.19L760.105 1252.56C758.449 1252.6 757.069 1251.29 757.024 1249.64L756.414 1227.12C756.369 1225.46 754.991 1224.16 753.336 1224.2L727.197 1224.9C725.541 1224.94 724.163 1223.64 724.118 1221.98L724.074 1220.35C724.029 1218.69 722.651 1217.39 720.995 1217.43L676.651 1218.62Z" fill="#F0F0F0" stroke="#000047" stroke-width="1.33333" stroke-miterlimit="10" stroke-linecap="round" stroke-linejoin="round"/>
<path fill-rule="evenodd" clip-rule="evenodd" d="M793.44 1099.49C792.454 1099.54 791.695 1100.38 791.746 1101.37C791.796 1102.35 792.633 1103.11 793.617 1103.06L798.521 1102.82C799.513 1102.77 800.277 1101.93 800.226 1100.94C800.176 1099.95 799.333 1099.19 798.344 1099.24L793.44 1099.49Z" fill="#F0F0F0" stroke="#000047" stroke-width="1.33333" stroke-miterlimit="10" stroke-linecap="round" stroke-linejoin="round"/>
<path fill-rule="evenodd" clip-rule="evenodd" d="M795.813 1090.51C794.156 1090.59 792.88 1092 792.962 1093.65L792.967 1093.75C793.05 1095.4 794.459 1096.68 796.114 1096.59L803.556 1096.22C805.211 1096.14 806.485 1094.73 806.402 1093.07L806.397 1092.99C806.315 1091.34 804.909 1090.06 803.255 1090.14L795.813 1090.51Z" fill="#F0F0F0" stroke="#000047" stroke-width="1.33333" stroke-miterlimit="10" stroke-linecap="round" stroke-linejoin="round"/>
<path fill-rule="evenodd" clip-rule="evenodd" d="M746.632 947.51C746.624 949.167 747.96 950.517 749.617 950.525L756.335 950.559C757.991 950.567 759.341 949.231 759.35 947.574L759.407 936.183C759.415 934.526 758.078 933.176 756.422 933.168L749.704 933.134C748.047 933.126 746.698 934.462 746.689 936.119L746.632 947.51Z" fill="#F0F0F0" stroke="#000047" stroke-width="1.33333" stroke-miterlimit="10" stroke-linecap="round" stroke-linejoin="round"/>
<path fill-rule="evenodd" clip-rule="evenodd" d="M677.959 954.918C676.301 954.961 674.993 956.341 675.038 957.998L676.081 996.576C676.125 998.232 677.504 999.538 679.16 999.494L705.764 998.781C707.42 998.736 708.727 997.357 708.682 995.701L707.64 957.141C707.595 955.486 706.218 954.18 704.562 954.223L677.959 954.918Z" fill="#F0F0F0" stroke="#000047" stroke-width="1.33333" stroke-miterlimit="10" stroke-linecap="round" stroke-linejoin="round"/>
<path fill-rule="evenodd" clip-rule="evenodd" d="M680.569 806.755C680.537 808.412 681.856 809.781 683.513 809.811L701.14 810.135C702.796 810.165 704.163 808.848 704.194 807.192L704.232 805.184C704.264 803.527 702.945 802.158 701.288 802.128L683.661 801.804C682.005 801.774 680.638 803.091 680.607 804.747L680.569 806.755Z" fill="#F0F0F0" stroke="#000047" stroke-width="1.33333" stroke-miterlimit="10" stroke-linecap="round" stroke-linejoin="round"/>
<path fill-rule="evenodd" clip-rule="evenodd" d="M672.243 723.017C670.585 723.073 669.286 724.464 669.345 726.122L669.757 737.71C669.816 739.368 671.211 740.664 672.869 740.601L673.178 740.59C674.835 740.527 676.229 741.821 676.289 743.478L676.6 752C676.66 753.659 675.363 755.051 673.704 755.108L673.376 755.119C671.718 755.176 670.42 756.568 670.48 758.226L671.263 779.863C671.323 781.518 672.712 782.811 674.367 782.753L748.417 780.14C750.074 780.081 751.369 778.691 751.31 777.034L749.978 739.869C749.919 738.215 748.531 736.921 746.877 736.978L746.553 736.989C744.897 737.046 743.509 735.75 743.452 734.094L743.25 728.247C743.193 726.59 741.803 725.294 740.147 725.352L730.341 725.695C728.687 725.753 727.298 724.46 727.238 722.806L727.024 716.928C726.964 715.273 725.575 713.98 723.92 714.038L679.615 715.605C677.959 715.663 676.664 717.053 676.723 718.709L676.763 719.858C676.822 721.516 675.524 722.907 673.865 722.963L672.243 723.017Z" fill="#F0F0F0" stroke="#000047" stroke-width="1.33333" stroke-miterlimit="10" stroke-linecap="round" stroke-linejoin="round"/>
<path fill-rule="evenodd" clip-rule="evenodd" d="M428.931 788.293C427.274 788.345 425.973 789.732 426.027 791.389L426.18 796.079C426.234 797.737 427.622 799.036 429.279 798.98L434.351 798.809C436.006 798.753 437.302 797.368 437.248 795.713L437.096 791.033C437.042 789.378 435.657 788.08 434.002 788.132L428.931 788.293Z" fill="#F0F0F0" stroke="#000047" stroke-width="1.33333" stroke-miterlimit="10" stroke-linecap="round" stroke-linejoin="round"/>
<path fill-rule="evenodd" clip-rule="evenodd" d="M466.274 814.648C465.204 815.922 465.377 817.824 466.658 818.886L493.305 840.972C494.426 841.901 496.087 841.752 497.025 840.639C497.963 839.526 499.623 839.377 500.744 840.306L510.067 848.03C511.337 849.082 513.218 848.911 514.278 847.649L522.855 837.436C523.916 836.172 525.8 836.003 527.07 837.059L527.256 837.214C528.526 838.269 530.409 838.1 531.471 836.836L553.625 810.457C554.695 809.183 554.524 807.282 553.243 806.219L537.131 792.849C535.861 791.795 533.978 791.965 532.917 793.229L512.804 817.187C511.743 818.451 509.86 818.62 508.59 817.566L484.497 797.571C483.227 796.517 481.344 796.687 480.283 797.951L466.274 814.648Z" fill="#F0F0F0" stroke="#000047" stroke-width="1.33333" stroke-miterlimit="10" stroke-linecap="round" stroke-linejoin="round"/>
<path fill-rule="evenodd" clip-rule="evenodd" d="M594.178 832C592.529 832.194 591.351 833.69 591.549 835.338L592.031 839.334C592.229 840.976 593.718 842.148 595.36 841.955L602.089 841.163C603.735 840.969 604.912 839.477 604.717 837.831L604.244 833.835C604.05 832.191 602.56 831.015 600.915 831.208L594.178 832Z" fill="#F0F0F0" stroke="#000047" stroke-width="1.33333" stroke-miterlimit="10" stroke-linecap="round" stroke-linejoin="round"/>
<path fill-rule="evenodd" clip-rule="evenodd" d="M673.396 787.62C673.388 789.276 674.724 790.626 676.381 790.635L680.555 790.656C682.212 790.664 683.561 789.327 683.57 787.671L683.578 785.934C683.587 784.277 682.25 782.927 680.594 782.919L676.42 782.898C674.763 782.89 673.413 784.226 673.405 785.883L673.396 787.62Z" fill="#F0F0F0" stroke="#000047" stroke-width="1.33333" stroke-miterlimit="10" stroke-linecap="round" stroke-linejoin="round"/>
<path fill-rule="evenodd" clip-rule="evenodd" d="M570.288 960.869C568.631 960.918 567.328 962.303 567.379 963.96L571.358 1093.41C571.409 1095.07 572.792 1096.37 574.448 1096.32L607.904 1095.3C609.561 1095.25 610.862 1093.87 610.812 1092.21L606.854 962.777C606.803 961.121 605.421 959.82 603.766 959.87L570.288 960.869Z" fill="#F0F0F0" stroke="#000047" stroke-width="1.33333" stroke-miterlimit="10" stroke-linecap="round" stroke-linejoin="round"/>
<path fill-rule="evenodd" clip-rule="evenodd" d="M606.67 1301.8C605.013 1301.84 603.707 1303.22 603.752 1304.88L604.38 1327.8C604.425 1329.45 605.806 1330.76 607.463 1330.71L608.979 1330.67C610.637 1330.63 612.018 1331.93 612.062 1333.59L612.278 1341.76C612.322 1343.41 613.7 1344.72 615.357 1344.68L629.351 1344.3C631.008 1344.26 632.315 1342.88 632.27 1341.22L631.265 1304.13C631.221 1302.48 629.842 1301.17 628.186 1301.22L606.67 1301.8Z" fill="#F0F0F0" stroke="#000047" stroke-width="1.33333" stroke-miterlimit="10" stroke-linecap="round" stroke-linejoin="round"/>
<path fill-rule="evenodd" clip-rule="evenodd" d="M595.505 1281.33C593.85 1281.36 592.528 1282.72 592.553 1284.37L592.63 1289.52C592.655 1291.18 594.019 1292.5 595.677 1292.47L601.682 1292.38C603.338 1292.35 604.66 1290.99 604.635 1289.33L604.558 1284.19C604.533 1282.53 603.168 1281.21 601.511 1281.24L595.505 1281.33Z" fill="#F0F0F0" stroke="#000047" stroke-width="1.33333" stroke-miterlimit="10" stroke-linecap="round" stroke-linejoin="round"/>
<path fill-rule="evenodd" clip-rule="evenodd" d="M587.46 1238.07C585.804 1238.11 584.493 1239.49 584.534 1241.14L584.913 1256.84C584.949 1258.33 586.182 1259.5 587.667 1259.47C589.152 1259.43 590.385 1260.61 590.42 1262.09L590.727 1275.1C590.766 1276.76 592.144 1278.07 593.802 1278.03L602.751 1277.8C604.407 1277.76 605.783 1279.07 605.826 1280.72L606.083 1290.79C606.125 1292.45 607.501 1293.76 609.156 1293.72L621.349 1293.41C623.004 1293.37 624.314 1292 624.274 1290.34L623.07 1240.21C623.03 1238.55 621.655 1237.24 619.998 1237.28L587.46 1238.07Z" fill="#F0F0F0" stroke="#000047" stroke-width="1.33333" stroke-miterlimit="10" stroke-linecap="round" stroke-linejoin="round"/>
<path fill-rule="evenodd" clip-rule="evenodd" d="M596.76 1331.07C595.104 1331.12 593.797 1332.5 593.841 1334.15L594.133 1345.1C594.177 1346.76 595.553 1348.06 597.207 1348.02L604.621 1347.83C606.278 1347.79 607.588 1346.41 607.544 1344.76L607.253 1333.79C607.209 1332.14 605.83 1330.83 604.173 1330.87L596.76 1331.07Z" fill="#F0F0F0" stroke="#000047" stroke-width="1.33333" stroke-miterlimit="10" stroke-linecap="round" stroke-linejoin="round"/>
<path fill-rule="evenodd" clip-rule="evenodd" d="M590.496 1314.8C588.838 1314.85 587.533 1316.23 587.584 1317.89L587.592 1318.16C587.643 1319.82 589.024 1321.12 590.678 1321.07L596.63 1320.9C598.284 1320.85 599.586 1319.47 599.542 1317.82L599.534 1317.54C599.489 1315.88 598.107 1314.58 596.449 1314.63L590.496 1314.8Z" fill="#F0F0F0" stroke="#000047" stroke-width="1.33333" stroke-miterlimit="10" stroke-linecap="round" stroke-linejoin="round"/>
<path fill-rule="evenodd" clip-rule="evenodd" d="M593.206 1180.32C591.55 1180.34 590.224 1181.7 590.245 1183.36L590.473 1201.13C590.495 1202.79 591.855 1204.12 593.512 1204.09L615.044 1203.81C616.702 1203.79 618.028 1202.43 618.005 1200.77L617.76 1183C617.738 1181.34 616.378 1180.02 614.722 1180.04L593.206 1180.32Z" fill="#F0F0F0" stroke="#000047" stroke-width="1.33333" stroke-miterlimit="10" stroke-linecap="round" stroke-linejoin="round"/>
<path fill-rule="evenodd" clip-rule="evenodd" d="M532.125 1271.26C530.478 1271.45 529.301 1272.95 529.498 1274.59L531.29 1289.58C531.487 1291.23 532.977 1292.4 534.62 1292.21L550.518 1290.33C552.165 1290.14 553.342 1288.64 553.145 1287L551.353 1272.01C551.156 1270.37 549.666 1269.19 548.023 1269.39L532.125 1271.26Z" fill="#F0F0F0" stroke="#000047" stroke-width="1.33333" stroke-miterlimit="10" stroke-linecap="round" stroke-linejoin="round"/>
<path fill-rule="evenodd" clip-rule="evenodd" d="M502.821 1328.71C501.164 1328.79 499.88 1330.19 499.954 1331.84L500.73 1349.18C500.804 1350.83 502.203 1352.11 503.857 1352.04L589.744 1348.3C591.399 1348.23 592.683 1346.82 592.61 1345.17L591.852 1327.83C591.779 1326.18 590.379 1324.9 588.724 1324.97L502.821 1328.71Z" fill="#F0F0F0" stroke="#000047" stroke-width="1.33333" stroke-miterlimit="10" stroke-linecap="round" stroke-linejoin="round"/>
<path fill-rule="evenodd" clip-rule="evenodd" d="M492.126 1217.99C490.846 1218.01 489.824 1219.06 489.845 1220.34L490.972 1288.84C490.999 1290.5 492.362 1291.82 494.018 1291.79L505.535 1291.61C507.192 1291.59 508.515 1290.22 508.487 1288.56L507.216 1211.88C507.189 1210.23 505.824 1208.91 504.169 1208.93L497.296 1209.04C495.637 1209.07 494.315 1210.44 494.344 1212.1L494.407 1215.64C494.429 1216.92 493.407 1217.97 492.126 1217.99Z" fill="#F0F0F0" stroke="#000047" stroke-width="1.33333" stroke-miterlimit="10" stroke-linecap="round" stroke-linejoin="round"/>
<path fill-rule="evenodd" clip-rule="evenodd" d="M478.4 1259.53C476.74 1259.56 475.422 1260.93 475.458 1262.59L475.509 1264.92C475.545 1266.57 476.912 1267.88 478.565 1267.85L486.588 1267.7C488.244 1267.67 489.561 1266.3 489.53 1264.64L489.485 1262.32C489.454 1260.66 488.085 1259.34 486.429 1259.37L478.4 1259.53Z" fill="#F0F0F0" stroke="#000047" stroke-width="1.33333" stroke-miterlimit="10" stroke-linecap="round" stroke-linejoin="round"/>
<path fill-rule="evenodd" clip-rule="evenodd" d="M475.25 1283.9C473.594 1283.93 472.278 1285.3 472.308 1286.95L472.339 1288.69C472.369 1290.35 473.739 1291.67 475.397 1291.64L487.004 1291.41C488.659 1291.38 489.975 1290.01 489.945 1288.36L489.914 1286.62C489.884 1284.96 488.514 1283.64 486.856 1283.68L475.25 1283.9Z" fill="#F0F0F0" stroke="#000047" stroke-width="1.33333" stroke-miterlimit="10" stroke-linecap="round" stroke-linejoin="round"/>
<path fill-rule="evenodd" clip-rule="evenodd" d="M459.352 1340.27C457.694 1340.31 456.384 1341.69 456.427 1343.35L456.609 1350.41C456.651 1352.07 458.026 1353.38 459.681 1353.33L484.187 1352.73C485.845 1352.69 487.155 1351.31 487.113 1349.66L486.931 1342.59C486.888 1340.94 485.513 1339.63 483.858 1339.67L459.352 1340.27Z" fill="#F0F0F0" stroke="#000047" stroke-width="1.33333" stroke-miterlimit="10" stroke-linecap="round" stroke-linejoin="round"/>
<path fill-rule="evenodd" clip-rule="evenodd" d="M407.233 949.169C405.576 949.249 404.3 950.659 404.382 952.315L404.853 961.733C404.936 963.386 406.342 964.66 407.996 964.579L413.34 964.319C414.996 964.238 416.273 962.829 416.19 961.173L415.719 951.755C415.637 950.102 414.23 948.828 412.577 948.908L407.233 949.169Z" fill="#F0F0F0" stroke="#000047" stroke-width="1.33333" stroke-miterlimit="10" stroke-linecap="round" stroke-linejoin="round"/>
<path fill-rule="evenodd" clip-rule="evenodd" d="M259.022 958.196C257.366 958.259 256.075 959.652 256.138 961.308L257.428 995.066C257.491 996.721 258.884 998.012 260.539 997.949L351.527 994.512C353.183 994.449 354.475 993.055 354.411 991.398L353.102 957.619C353.038 955.964 351.645 954.674 349.991 954.737L259.022 958.196Z" fill="#F0F0F0" stroke="#000047" stroke-width="1.33333" stroke-miterlimit="10" stroke-linecap="round" stroke-linejoin="round"/>
<path fill-rule="evenodd" clip-rule="evenodd" d="M380.474 972.231C378.819 972.331 377.559 973.754 377.66 975.409L385.583 1105.03C385.684 1106.68 387.105 1107.94 388.757 1107.84L423.343 1105.76C424.998 1105.66 426.259 1104.24 426.158 1102.59L418.234 972.967C418.133 971.314 416.713 970.056 415.06 970.155L380.474 972.231Z" fill="#F0F0F0" stroke="#000047" stroke-width="1.33333" stroke-miterlimit="10" stroke-linecap="round" stroke-linejoin="round"/>
<path fill-rule="evenodd" clip-rule="evenodd" d="M370.284 1323.12C368.626 1323.14 367.298 1324.5 367.319 1326.16L367.578 1346.92C367.599 1348.57 368.957 1349.9 370.613 1349.88L394.535 1349.6C396.193 1349.58 397.521 1348.22 397.5 1346.56L397.241 1325.81C397.22 1324.15 395.862 1322.83 394.206 1322.85L370.284 1323.12Z" fill="#F0F0F0" stroke="#000047" stroke-width="1.33333" stroke-miterlimit="10" stroke-linecap="round" stroke-linejoin="round"/>
<path fill-rule="evenodd" clip-rule="evenodd" d="M305.673 1235.23C304.017 1235.28 302.718 1236.67 302.772 1238.32L304.646 1295.63C304.7 1297.29 306.086 1298.59 307.742 1298.53L343.853 1297.36C345.51 1297.31 346.809 1295.92 346.754 1294.26L344.86 1236.95C344.805 1235.3 343.419 1234 341.764 1234.05L305.673 1235.23Z" fill="#F0F0F0" stroke="#000047" stroke-width="1.33333" stroke-miterlimit="10" stroke-linecap="round" stroke-linejoin="round"/>
<path fill-rule="evenodd" clip-rule="evenodd" d="M312.946 1330.8C311.3 1330.99 310.125 1332.49 310.322 1334.13L312.628 1353.37C312.825 1355.01 314.317 1356.18 315.961 1355.99L325.092 1354.9C326.74 1354.71 327.915 1353.21 327.716 1351.56L325.393 1332.33C325.195 1330.69 323.703 1329.52 322.06 1329.71L312.946 1330.8Z" fill="#F0F0F0" stroke="#000047" stroke-width="1.33333" stroke-miterlimit="10" stroke-linecap="round" stroke-linejoin="round"/>
<path fill-rule="evenodd" clip-rule="evenodd" d="M302.471 1342.91C300.885 1343 299.67 1344.35 299.759 1345.94L300.133 1352.62C300.222 1354.21 301.581 1355.42 303.167 1355.33C304.749 1355.24 305.958 1353.88 305.869 1352.3L305.494 1345.62C305.405 1344.04 304.053 1342.82 302.471 1342.91Z" fill="#F0F0F0" stroke="#000047" stroke-width="1.33333" stroke-miterlimit="10" stroke-linecap="round" stroke-linejoin="round"/>
<path fill-rule="evenodd" clip-rule="evenodd" d="M303.184 1187.08C303.119 1188.73 304.406 1190.12 306.06 1190.19L314.081 1190.52C315.735 1190.58 317.131 1189.3 317.2 1187.64L317.331 1184.48C317.4 1182.82 316.112 1181.43 314.455 1181.36L306.426 1181.04C304.769 1180.97 303.372 1182.26 303.307 1183.92L303.184 1187.08Z" fill="#F0F0F0" stroke="#000047" stroke-width="1.33333" stroke-miterlimit="10" stroke-linecap="round" stroke-linejoin="round"/>
<path fill-rule="evenodd" clip-rule="evenodd" d="M324.108 1177.11C322.451 1177.16 321.148 1178.54 321.198 1180.2L321.572 1192.64C321.622 1194.29 323.004 1195.59 324.659 1195.54L340.174 1195.08C341.83 1195.04 343.133 1193.65 343.084 1192L342.709 1179.56C342.66 1177.91 341.278 1176.6 339.622 1176.65L324.108 1177.11Z" fill="#F0F0F0" stroke="#000047" stroke-width="1.33333" stroke-miterlimit="10" stroke-linecap="round" stroke-linejoin="round"/>
<path fill-rule="evenodd" clip-rule="evenodd" d="M271.61 1187.72C271.54 1189.38 272.823 1190.78 274.477 1190.85L287.332 1191.4C288.989 1191.48 290.389 1190.19 290.46 1188.54L290.508 1187.4C290.578 1185.75 289.295 1184.35 287.64 1184.28L274.785 1183.72C273.129 1183.65 271.729 1184.94 271.658 1186.59L271.61 1187.72Z" fill="#F0F0F0" stroke="#000047" stroke-width="1.33333" stroke-miterlimit="10" stroke-linecap="round" stroke-linejoin="round"/>
<path fill-rule="evenodd" clip-rule="evenodd" d="M274.687 1311.79C274.448 1313.43 275.589 1314.95 277.234 1315.19L280.345 1315.63C281.982 1315.86 283.498 1314.73 283.736 1313.09L284.144 1310.28C284.383 1308.64 283.241 1307.11 281.597 1306.88L278.486 1306.44C276.849 1306.21 275.333 1307.34 275.095 1308.98L274.687 1311.79Z" fill="#F0F0F0" stroke="#000047" stroke-width="1.33333" stroke-miterlimit="10" stroke-linecap="round" stroke-linejoin="round"/>
<path fill-rule="evenodd" clip-rule="evenodd" d="M160.915 1304.05C159.264 1304.22 158.064 1305.7 158.239 1307.35L158.906 1313.64C159.08 1315.28 160.552 1316.47 162.196 1316.31L181.52 1314.32C183.172 1314.15 184.372 1312.67 184.197 1311.02L183.53 1304.73C183.355 1303.08 181.884 1301.89 180.239 1302.06L160.915 1304.05Z" fill="#F0F0F0" stroke="#000047" stroke-width="1.33333" stroke-miterlimit="10" stroke-linecap="round" stroke-linejoin="round"/>
<path fill-rule="evenodd" clip-rule="evenodd" d="M154.294 1291.44C152.647 1291.64 151.475 1293.14 151.677 1294.79L152.467 1301.22C152.669 1302.87 154.163 1304.04 155.805 1303.84L174.027 1301.63C175.674 1301.43 176.847 1299.94 176.645 1298.29L175.854 1291.85C175.652 1290.21 174.159 1289.04 172.516 1289.24L154.294 1291.44Z" fill="#F0F0F0" stroke="#000047" stroke-width="1.33333" stroke-miterlimit="10" stroke-linecap="round" stroke-linejoin="round"/>
<path fill-rule="evenodd" clip-rule="evenodd" d="M216.38 1186.24C216.331 1187.74 217.504 1188.98 218.998 1189.03C220.486 1189.07 221.729 1187.91 221.778 1186.42L221.969 1180.59C222.019 1179.09 220.845 1177.84 219.352 1177.8C217.864 1177.75 216.62 1178.92 216.571 1180.41L216.38 1186.24Z" fill="#F0F0F0" stroke="#000047" stroke-width="1.33333" stroke-miterlimit="10" stroke-linecap="round" stroke-linejoin="round"/>
<path fill-rule="evenodd" clip-rule="evenodd" d="M201.384 1185.48C201.344 1187.14 202.653 1188.51 204.309 1188.55L210.87 1188.72C212.528 1188.76 213.904 1187.45 213.944 1185.79L214.084 1179.9C214.123 1178.25 212.814 1176.87 211.159 1176.83L204.597 1176.67C202.94 1176.63 201.563 1177.94 201.524 1179.6L201.384 1185.48Z" fill="#F0F0F0" stroke="#000047" stroke-width="1.33333" stroke-miterlimit="10" stroke-linecap="round" stroke-linejoin="round"/>
<path fill-rule="evenodd" clip-rule="evenodd" d="M194.352 980.258C192.696 980.314 191.399 981.702 191.455 983.358L195.84 1112.41C195.896 1114.07 197.283 1115.36 198.938 1115.31L232.998 1114.17C234.655 1114.12 235.953 1112.73 235.896 1111.07L231.512 982.002C231.456 980.346 230.068 979.049 228.412 979.105L194.352 980.258Z" fill="#F0F0F0" stroke="#000047" stroke-width="1.33333" stroke-miterlimit="10" stroke-linecap="round" stroke-linejoin="round"/>
<path fill-rule="evenodd" clip-rule="evenodd" d="M235.622 872.369C233.966 872.436 232.677 873.832 232.744 875.488L234.566 920.528C234.633 922.183 236.028 923.471 237.683 923.405L294.728 921.14C296.386 921.074 297.675 919.675 297.607 918.018L297.437 913.914C297.368 912.257 298.657 910.859 300.314 910.792L314.31 910.231C315.966 910.165 317.254 908.769 317.188 907.113L316.259 884.031C316.192 882.374 314.793 881.085 313.136 881.154L308.981 881.327C307.325 881.396 305.928 880.11 305.858 878.455L305.751 875.881C305.681 874.224 306.97 872.825 308.628 872.758L340.564 871.475C342.22 871.408 343.508 870.012 343.441 868.356L341.103 810.525C341.036 808.87 339.641 807.582 337.986 807.648L306.013 808.931C305.448 808.953 305.009 809.433 305.037 809.999C305.065 810.564 304.626 811.044 304.061 811.067L292.687 811.526C291.031 811.593 289.743 812.989 289.81 814.645L291.93 867.105C291.997 868.761 290.709 870.158 289.053 870.224L235.622 872.369Z" fill="#F0F0F0" stroke="#000047" stroke-width="1.33333" stroke-miterlimit="10" stroke-linecap="round" stroke-linejoin="round"/>
<path fill-rule="evenodd" clip-rule="evenodd" d="M219.878 959.846C218.223 959.872 216.902 961.234 216.926 962.889L217.055 971.755C217.079 973.414 218.444 974.738 220.102 974.712L224.876 974.636C226.533 974.609 227.854 973.245 227.828 971.588L227.686 962.721C227.659 961.065 226.295 959.743 224.638 959.77L219.878 959.846Z" fill="#F0F0F0" stroke="#000047" stroke-width="1.33333" stroke-miterlimit="10" stroke-linecap="round" stroke-linejoin="round"/>
<path fill-rule="evenodd" clip-rule="evenodd" d="M231.12 763.301C229.465 763.385 228.191 764.794 228.275 766.45L230.55 811.201C230.634 812.855 232.042 814.128 233.697 814.045L299.581 810.737C301.239 810.654 302.515 809.239 302.426 807.581L302.358 806.297C302.27 804.642 303.542 803.228 305.198 803.142L310.274 802.878C311.928 802.792 313.199 801.382 313.114 799.727L311.755 773.403C311.67 771.75 310.263 770.479 308.61 770.561L293.564 771.309C291.913 771.391 290.507 770.122 290.419 768.472L290.145 763.322C290.058 761.67 288.65 760.401 286.999 760.485L231.12 763.301Z" fill="#F0F0F0" stroke="#000047" stroke-width="1.33333" stroke-miterlimit="10" stroke-linecap="round" stroke-linejoin="round"/>
<path fill-rule="evenodd" clip-rule="evenodd" d="M404.093 841.339C404.072 842.994 405.395 844.353 407.05 844.377L410.916 844.431C412.573 844.455 413.935 843.131 413.958 841.474L414.08 832.948C414.103 831.292 412.779 829.929 411.122 829.906L407.243 829.851C405.585 829.828 404.222 831.154 404.201 832.813L404.093 841.339Z" fill="#F0F0F0" stroke="#000047" stroke-width="1.33333" stroke-miterlimit="10" stroke-linecap="round" stroke-linejoin="round"/>
<path fill-rule="evenodd" clip-rule="evenodd" d="M417.742 834.441C417.701 835.811 418.78 836.954 420.15 836.992C421.515 837.03 422.654 835.956 422.695 834.59L422.734 833.307C422.775 831.941 421.703 830.8 420.337 830.756C418.968 830.712 417.822 831.788 417.781 833.158L417.742 834.441Z" fill="#F0F0F0" stroke="#000047" stroke-width="1.33333" stroke-miterlimit="10" stroke-linecap="round" stroke-linejoin="round"/>
<path fill-rule="evenodd" clip-rule="evenodd" d="M419.876 815.371C418.218 815.398 416.896 816.764 416.925 818.422L417.063 826.483C417.092 828.136 418.452 829.455 420.105 829.431L424.71 829.366C426.368 829.343 427.693 827.978 427.667 826.32L427.541 818.249C427.515 816.591 426.15 815.269 424.493 815.296L419.876 815.371Z" fill="#F0F0F0" stroke="#000047" stroke-width="1.33333" stroke-miterlimit="10" stroke-linecap="round" stroke-linejoin="round"/>
<path fill-rule="evenodd" clip-rule="evenodd" d="M407.826 817.394C407.817 819.05 409.154 820.4 410.811 820.409L411.549 820.412C413.205 820.421 414.555 819.084 414.564 817.427L414.567 816.728C414.575 815.071 413.239 813.721 411.582 813.713L410.844 813.709C409.187 813.701 407.837 815.037 407.829 816.694L407.826 817.394Z" fill="#F0F0F0" stroke="#000047" stroke-width="1.33333" stroke-miterlimit="10" stroke-linecap="round" stroke-linejoin="round"/>
<path fill-rule="evenodd" clip-rule="evenodd" d="M407.7 822.8C406.175 822.803 404.942 824.046 404.953 825.572C404.964 827.086 406.196 828.307 407.71 828.304L412.057 828.296C413.578 828.293 414.809 827.057 414.804 825.536C414.799 824.017 413.565 822.789 412.047 822.792L407.7 822.8Z" fill="#F0F0F0" stroke="#000047" stroke-width="1.33333" stroke-miterlimit="10" stroke-linecap="round" stroke-linejoin="round"/>
<path fill-rule="evenodd" clip-rule="evenodd" d="M406.286 799.111C404.629 799.168 403.333 800.559 403.393 802.216L403.667 809.892C403.726 811.547 405.115 812.84 406.77 812.783L410.927 812.637C412.584 812.579 413.88 811.189 413.821 809.532L413.546 801.856C413.487 800.201 412.098 798.907 410.443 798.965L406.286 799.111Z" fill="#F0F0F0" stroke="#000047" stroke-width="1.33333" stroke-miterlimit="10" stroke-linecap="round" stroke-linejoin="round"/>
<path fill-rule="evenodd" clip-rule="evenodd" d="M406.743 789.391C405.087 789.441 403.786 790.823 403.835 792.478L403.886 794.197C403.935 795.854 405.319 797.157 406.976 797.106L410.543 796.998C412.202 796.948 413.504 795.561 413.45 793.902L413.394 792.183C413.341 790.53 411.958 789.232 410.305 789.282L406.743 789.391Z" fill="#F0F0F0" stroke="#000047" stroke-width="1.33333" stroke-miterlimit="10" stroke-linecap="round" stroke-linejoin="round"/>
<path fill-rule="evenodd" clip-rule="evenodd" d="M363.184 756.11C361.528 756.169 360.233 757.559 360.293 759.215L360.9 776.234C360.959 777.889 362.348 779.183 364.002 779.125L380.163 778.565C381.821 778.507 383.117 777.115 383.057 775.457L382.432 758.421C382.372 756.766 380.982 755.474 379.327 755.533L363.184 756.11Z" fill="#F0F0F0" stroke="#000047" stroke-width="1.33333" stroke-miterlimit="10" stroke-linecap="round" stroke-linejoin="round"/>
<path fill-rule="evenodd" clip-rule="evenodd" d="M60.5412 770.363C58.8828 770.388 57.5594 771.754 57.5869 773.413L58.1039 804.632C58.1313 806.289 59.4957 807.609 61.1518 807.582L77.5794 807.318C79.2359 807.291 80.5571 805.927 80.5307 804.27L80.0322 773.067C80.0058 771.412 78.643 770.091 76.9874 770.116L60.5412 770.363Z" fill="#F0F0F0" stroke="#000047" stroke-width="1.33333" stroke-miterlimit="10" stroke-linecap="round" stroke-linejoin="round"/>
<path fill-rule="evenodd" clip-rule="evenodd" d="M66.5397 814.386C64.8851 814.44 63.5872 815.824 63.6394 817.479L64.1241 832.851C64.1763 834.507 65.5605 835.807 67.2161 835.755L76.1673 835.476C77.8249 835.424 79.1261 834.038 79.0721 832.38L78.5715 816.994C78.5176 815.338 77.1311 814.039 75.4749 814.093L66.5397 814.386Z" fill="#F0F0F0" stroke="#000047" stroke-width="1.33333" stroke-miterlimit="10" stroke-linecap="round" stroke-linejoin="round"/>
<path fill-rule="evenodd" clip-rule="evenodd" d="M71.9894 897.191C70.3322 897.228 69.0189 898.602 69.0567 900.259L69.3223 911.902C69.36 913.558 70.7323 914.869 72.388 914.833L87.1194 914.506C88.7766 914.469 90.0899 913.095 90.0521 911.438L89.7865 899.795C89.7488 898.14 88.3765 896.828 86.7208 896.864L71.9894 897.191Z" fill="#F0F0F0" stroke="#000047" stroke-width="1.33333" stroke-miterlimit="10" stroke-linecap="round" stroke-linejoin="round"/>
<path fill-rule="evenodd" clip-rule="evenodd" d="M84.1012 866.965C82.4416 867.014 81.1376 868.402 81.1916 870.061L81.2861 872.966C81.34 874.623 82.7266 875.921 84.3828 875.867L85.549 875.829C87.2048 875.775 88.5032 874.388 88.4491 872.733L88.3544 869.831C88.3005 868.179 86.9198 866.881 85.2672 866.93L84.1012 866.965Z" fill="#F0F0F0" stroke="#000047" stroke-width="1.33333" stroke-miterlimit="10" stroke-linecap="round" stroke-linejoin="round"/>
<path fill-rule="evenodd" clip-rule="evenodd" d="M55.0808 884.647C54.4727 884.687 54 885.192 54 885.801V1018.47C54 1020.21 55.4661 1021.58 57.1965 1021.47L62.4132 1021.12C64.0684 1021.02 65.3213 1019.58 65.2099 1017.93L56.3117 885.723C56.2688 885.086 55.718 884.604 55.0808 884.647Z" fill="#F0F0F0" stroke="#000047" stroke-width="1.33333" stroke-miterlimit="10" stroke-linecap="round" stroke-linejoin="round"/>
<path fill-rule="evenodd" clip-rule="evenodd" d="M74.291 932.391C72.6422 932.564 71.4461 934.041 71.6204 935.69L74.8027 965.791C74.9767 967.437 76.4501 968.63 78.0959 968.46L94.7194 966.734C96.3695 966.563 97.5673 965.084 97.393 963.435L94.211 933.317C94.037 931.67 92.5617 930.476 90.9148 930.648L74.291 932.391Z" fill="#F0F0F0" stroke="#000047" stroke-width="1.33333" stroke-miterlimit="10" stroke-linecap="round" stroke-linejoin="round"/>
<path fill-rule="evenodd" clip-rule="evenodd" d="M81.3344 984.721C79.6802 984.84 78.4363 986.278 78.5576 987.932L82.0448 1035.5C82.1658 1037.15 83.601 1038.39 85.2519 1038.27L95.9849 1037.5C97.6391 1037.38 98.883 1035.94 98.7617 1034.29L95.2745 986.722C95.1534 985.071 93.7183 983.83 92.0674 983.949L81.3344 984.721Z" fill="#F0F0F0" stroke="#000047" stroke-width="1.33333" stroke-miterlimit="10" stroke-linecap="round" stroke-linejoin="round"/>
<path fill-rule="evenodd" clip-rule="evenodd" d="M81.2751 1070.35C79.6186 1070.39 78.313 1071.77 78.3594 1073.43L78.6077 1082.3C78.6541 1083.95 80.0337 1085.26 81.6896 1085.21L95.686 1084.83C97.3426 1084.78 98.6482 1083.4 98.6018 1081.74L98.3535 1072.87C98.3071 1071.22 96.9274 1069.91 95.2716 1069.96L81.2751 1070.35Z" fill="#F0F0F0" stroke="#000047" stroke-width="1.33333" stroke-miterlimit="10" stroke-linecap="round" stroke-linejoin="round"/>
<path fill-rule="evenodd" clip-rule="evenodd" d="M95.4509 1291.31C93.7993 1291.46 92.5843 1292.92 92.7386 1294.58L98.9564 1361.09C99.1105 1362.74 100.57 1363.95 102.218 1363.8L115.573 1362.57C117.225 1362.42 118.44 1360.95 118.286 1359.3L112.047 1292.79C111.893 1291.14 110.433 1289.93 108.786 1290.08L95.4509 1291.31Z" fill="#F0F0F0" stroke="#000047" stroke-width="1.33333" stroke-miterlimit="10" stroke-linecap="round" stroke-linejoin="round"/>
<path fill-rule="evenodd" clip-rule="evenodd" d="M86.6742 1198.01C85.0227 1198.15 83.7959 1199.6 83.9344 1201.25L89.6017 1268.82C89.7401 1270.47 91.1875 1271.7 92.8368 1271.56L102.906 1270.73C104.559 1270.6 105.788 1269.15 105.65 1267.49L99.9831 1199.91C99.8447 1198.26 98.3946 1197.03 96.7439 1197.17L86.6742 1198.01Z" fill="#F0F0F0" stroke="#000047" stroke-width="1.33333" stroke-miterlimit="10" stroke-linecap="round" stroke-linejoin="round"/>
<path fill-rule="evenodd" clip-rule="evenodd" d="M56.835 1255.2C55.2446 1255.29 54 1256.6 54 1258.2V1261.1C54 1262.83 55.4457 1264.19 57.1646 1264.1L60.4758 1263.92C62.1334 1263.83 63.4019 1262.41 63.3062 1260.75L63.1388 1257.85C63.0435 1256.2 61.6301 1254.94 59.9788 1255.03L56.835 1255.2Z" fill="#F0F0F0" stroke="#000047" stroke-width="1.33333" stroke-miterlimit="10" stroke-linecap="round" stroke-linejoin="round"/>
<path fill-rule="evenodd" clip-rule="evenodd" d="M82.586 1096.42C80.9316 1096.51 79.6714 1097.94 79.772 1099.59L81.0568 1120.72C81.1573 1122.38 82.5784 1123.64 84.2317 1123.54L101.744 1122.48C103.398 1122.38 104.659 1120.96 104.558 1119.31L103.273 1098.17C103.173 1096.52 101.752 1095.26 100.098 1095.36L82.586 1096.42Z" fill="#F0F0F0" stroke="#000047" stroke-width="1.33333" stroke-miterlimit="10" stroke-linecap="round" stroke-linejoin="round"/>
<path fill-rule="evenodd" clip-rule="evenodd" d="M56.7357 1044.25C55.1873 1044.39 54 1045.69 54 1047.24V1167.61L55.2014 1181.07C55.3485 1182.72 56.8039 1183.94 58.4532 1183.8L73.5254 1182.47C75.1771 1182.32 76.3974 1180.86 76.2499 1179.21L64.4043 1046.58C64.257 1044.93 62.8014 1043.71 61.152 1043.86L56.7357 1044.25Z" fill="#F0F0F0" stroke="#000047" stroke-width="1.33333" stroke-miterlimit="10" stroke-linecap="round" stroke-linejoin="round"/>
<path fill-rule="evenodd" clip-rule="evenodd" d="M56.5686 1204.58C55.1161 1204.71 54 1205.92 54 1207.38V1219.45C54 1221.2 55.5025 1222.59 57.2529 1222.44L57.9041 1222.38C59.5574 1222.24 60.7832 1220.79 60.6401 1219.13L59.6014 1207.14C59.4679 1205.6 58.1109 1204.45 56.5686 1204.58Z" fill="#F0F0F0" stroke="#000047" stroke-width="1.33333" stroke-miterlimit="10" stroke-linecap="round" stroke-linejoin="round"/>
<path fill-rule="evenodd" clip-rule="evenodd" d="M56.7463 1230.76C55.1934 1230.9 54 1232.2 54 1233.75V1245.14C54 1246.9 55.5031 1248.28 57.2537 1248.13L60.9942 1247.82C62.6456 1247.68 63.8705 1246.22 63.7296 1244.57L62.7646 1233.26C62.6238 1231.61 61.1722 1230.39 59.5218 1230.53L56.7463 1230.76Z" fill="#F0F0F0" stroke="#000047" stroke-width="1.33333" stroke-miterlimit="10" stroke-linecap="round" stroke-linejoin="round"/>
<path fill-rule="evenodd" clip-rule="evenodd" d="M55.5659 1274.61C54.6805 1274.68 54 1275.42 54 1276.31V1295.2C54 1296.68 55.2629 1297.84 56.734 1297.72C58.1228 1297.6 59.1526 1296.38 59.0332 1294.99L57.4142 1276.16C57.3333 1275.22 56.5062 1274.53 55.5659 1274.61Z" fill="#F0F0F0" stroke="#000047" stroke-width="1.33333" stroke-miterlimit="10" stroke-linecap="round" stroke-linejoin="round"/>
<path fill-rule="evenodd" clip-rule="evenodd" d="M56.7463 1299.9C55.1934 1300.03 54 1301.33 54 1302.89V1314.39C54 1316.15 55.5025 1317.53 57.2528 1317.38L65.5765 1316.68C67.2291 1316.54 68.4548 1315.08 68.3126 1313.43L67.3302 1302.01C67.1883 1300.36 65.7371 1299.14 64.0875 1299.28L56.7463 1299.9Z" fill="#F0F0F0" stroke="#000047" stroke-width="1.33333" stroke-miterlimit="10" stroke-linecap="round" stroke-linejoin="round"/>
<path fill-rule="evenodd" clip-rule="evenodd" d="M56.7466 1323.48C55.1935 1323.61 54 1324.91 54 1326.47V1340.13C54 1341.89 55.5028 1343.27 57.2533 1343.12L69.197 1342.11C70.8498 1341.97 72.0752 1340.52 71.9326 1338.86L70.7617 1325.3C70.6193 1323.65 69.1685 1322.43 67.5194 1322.57L56.7466 1323.48Z" fill="#F0F0F0" stroke="#000047" stroke-width="1.33333" stroke-miterlimit="10" stroke-linecap="round" stroke-linejoin="round"/>
<path fill-rule="evenodd" clip-rule="evenodd" d="M60.7578 1549.43C59.1031 1549.51 57.8317 1550.92 57.918 1552.58L59.2136 1577.41C59.2999 1579.06 60.7094 1580.34 62.3629 1580.25L79.6531 1579.37C81.307 1579.28 82.7166 1580.55 82.8024 1582.21L83.8142 1601.71C83.9 1603.37 85.3104 1604.64 86.9647 1604.55L111.658 1603.28C113.314 1603.19 114.586 1601.78 114.5 1600.13L110.395 1521.69C110.308 1520.04 108.898 1518.76 107.244 1518.85L81.0088 1520.21C79.3536 1520.29 78.0814 1521.7 78.1677 1523.36L79.3206 1545.46C79.4069 1547.11 78.1355 1548.52 76.4808 1548.61L60.7578 1549.43Z" fill="#F0F0F0" stroke="#000047" stroke-width="1.33333" stroke-miterlimit="10" stroke-linecap="round" stroke-linejoin="round"/>
<path fill-rule="evenodd" clip-rule="evenodd" d="M60.7611 1501.52C59.1158 1501.72 57.947 1503.22 58.1513 1504.87L58.7629 1509.79C58.967 1511.43 60.4639 1512.6 62.1074 1512.4L64.2345 1512.14C65.8798 1511.93 67.0486 1510.43 66.8442 1508.79L66.2326 1503.86C66.0285 1502.22 64.5316 1501.05 62.8882 1501.26L60.7611 1501.52Z" fill="#F0F0F0" stroke="#000047" stroke-width="1.33333" stroke-miterlimit="10" stroke-linecap="round" stroke-linejoin="round"/>
<path fill-rule="evenodd" clip-rule="evenodd" d="M56.7544 1450.61C55.198 1450.74 54 1452.04 54 1453.6V1479.54C54 1481.3 55.4961 1482.68 57.243 1482.53L60.8626 1482.24C62.5158 1482.11 63.7462 1480.66 63.6093 1479L61.475 1453.23C61.3383 1451.58 59.8902 1450.36 58.2397 1450.49L56.7544 1450.61Z" fill="#F0F0F0" stroke="#000047" stroke-width="1.33333" stroke-miterlimit="10" stroke-linecap="round" stroke-linejoin="round"/>
<path fill-rule="evenodd" clip-rule="evenodd" d="M56.7466 1348.33C55.1935 1348.46 54 1349.76 54 1351.32V1364.34C54 1366.1 55.5029 1367.48 57.2534 1367.33L72.3583 1366.05C74.0104 1365.91 75.2357 1364.46 75.0939 1362.81L73.9838 1349.87C73.8422 1348.22 72.3911 1347 70.7414 1347.14L56.7466 1348.33Z" fill="#F0F0F0" stroke="#000047" stroke-width="1.33333" stroke-miterlimit="10" stroke-linecap="round" stroke-linejoin="round"/>
<path fill-rule="evenodd" clip-rule="evenodd" d="M88.8769 1388.69C87.2211 1388.75 85.9226 1390.13 85.9765 1391.79L86.6513 1412.53C86.7052 1414.18 88.0909 1415.48 89.7466 1415.43L106.715 1414.88C108.37 1414.83 109.669 1413.44 109.617 1411.79L108.555 1378.21C108.502 1376.55 107.116 1375.25 105.46 1375.31L95.0544 1375.64C93.3991 1375.69 92.1001 1377.08 92.1522 1378.73L92.3677 1385.58C92.4198 1387.23 91.1218 1388.62 89.4672 1388.67L88.8769 1388.69Z" fill="#F0F0F0" stroke="#000047" stroke-width="1.33333" stroke-miterlimit="10" stroke-linecap="round" stroke-linejoin="round"/>
<path fill-rule="evenodd" clip-rule="evenodd" d="M62.2514 1418.88C60.5998 1419.03 59.3827 1420.49 59.5343 1422.14L67.5963 1509.98C67.7476 1511.63 69.2055 1512.84 70.8541 1512.69L92.5132 1510.73C94.1648 1510.58 95.3818 1509.12 95.2303 1507.47L87.1683 1419.63C87.017 1417.99 85.5591 1416.77 83.9105 1416.92L62.2514 1418.88Z" fill="#F0F0F0" stroke="#000047" stroke-width="1.33333" stroke-miterlimit="10" stroke-linecap="round" stroke-linejoin="round"/>
<path fill-rule="evenodd" clip-rule="evenodd" d="M133.841 1664.23C132.191 1664.39 130.982 1665.85 131.142 1667.5L137.542 1733.36C137.702 1735.01 139.169 1736.22 140.818 1736.06L152.726 1734.9C154.375 1734.74 155.582 1733.27 155.421 1731.62L149 1665.78C148.84 1664.13 147.375 1662.93 145.728 1663.09L133.841 1664.23Z" fill="#F0F0F0" stroke="#000047" stroke-width="1.33333" stroke-miterlimit="10" stroke-linecap="round" stroke-linejoin="round"/>
<path fill-rule="evenodd" clip-rule="evenodd" d="M111.823 1645.78C110.166 1645.85 108.885 1647.26 108.962 1648.91L109.529 1661.08C109.606 1662.74 111.008 1664.01 112.662 1663.94L117.406 1663.72C119.061 1663.65 120.342 1662.25 120.267 1660.59L119.715 1648.42C119.64 1646.77 118.237 1645.49 116.582 1645.56L111.823 1645.78Z" fill="#F0F0F0" stroke="#000047" stroke-width="1.33333" stroke-miterlimit="10" stroke-linecap="round" stroke-linejoin="round"/>
<path fill-rule="evenodd" clip-rule="evenodd" d="M56.8203 1723.88C55.2361 1723.98 54 1725.29 54 1726.88V1738.78C54 1740.5 55.4559 1741.88 57.1806 1741.77L109.999 1738.59C111.654 1738.49 112.914 1737.06 112.813 1735.41L112.087 1723.57C111.985 1721.92 110.565 1720.66 108.913 1720.76L56.8203 1723.88Z" fill="#F0F0F0" stroke="#000047" stroke-width="1.33333" stroke-miterlimit="10" stroke-linecap="round" stroke-linejoin="round"/>
<path fill-rule="evenodd" clip-rule="evenodd" d="M56.6918 1700.2C55.1624 1700.36 54 1701.64 54 1703.18V1715.21C54 1716.99 55.5395 1718.38 57.3091 1718.2L108.799 1712.86C110.449 1712.69 111.647 1711.21 111.474 1709.56L110.226 1697.68C110.053 1696.03 108.58 1694.84 106.934 1695.01L56.6918 1700.2Z" fill="#F0F0F0" stroke="#000047" stroke-width="1.33333" stroke-miterlimit="10" stroke-linecap="round" stroke-linejoin="round"/>
<path fill-rule="evenodd" clip-rule="evenodd" d="M56.6948 1674.71C55.1641 1674.87 54 1676.16 54 1677.7V1690.37C54 1692.15 55.5369 1693.53 57.3053 1693.35L107.473 1688.22C109.122 1688.05 110.322 1686.58 110.151 1684.93L108.854 1672.39C108.683 1670.74 107.211 1669.55 105.564 1669.71L56.6948 1674.71Z" fill="#F0F0F0" stroke="#000047" stroke-width="1.33333" stroke-miterlimit="10" stroke-linecap="round" stroke-linejoin="round"/>
<path fill-rule="evenodd" clip-rule="evenodd" d="M58.0375 1747.47C56.3856 1747.62 55.1715 1749.08 55.3274 1750.74L56.6066 1764.28C56.7622 1765.93 58.2224 1767.14 59.8702 1766.99L112.786 1762.08C114.436 1761.93 115.65 1760.47 115.496 1758.82L114.232 1745.27C114.078 1743.62 112.617 1742.41 110.968 1742.56L58.0375 1747.47Z" fill="#F0F0F0" stroke="#000047" stroke-width="1.33333" stroke-miterlimit="10" stroke-linecap="round" stroke-linejoin="round"/>
<path fill-rule="evenodd" clip-rule="evenodd" d="M56.6495 1795.55C55.1386 1795.73 54 1797.01 54 1798.53V1809.97C54 1811.77 55.5677 1813.16 57.3514 1812.95L115.945 1806.04C117.592 1805.85 118.769 1804.35 118.573 1802.71L117.228 1791.44C117.032 1789.8 115.542 1788.62 113.899 1788.82L56.6495 1795.55Z" fill="#F0F0F0" stroke="#000047" stroke-width="1.33333" stroke-miterlimit="10" stroke-linecap="round" stroke-linejoin="round"/>
<path fill-rule="evenodd" clip-rule="evenodd" d="M56.7402 1769.9C55.1899 1770.03 54 1771.33 54 1772.89V1783.78C54 1785.54 55.5071 1786.93 57.2599 1786.77L114.496 1781.8C116.148 1781.65 117.37 1780.2 117.225 1778.54L116.273 1767.73C116.128 1766.08 114.674 1764.86 113.025 1765.01L56.7402 1769.9Z" fill="#F0F0F0" stroke="#000047" stroke-width="1.33333" stroke-miterlimit="10" stroke-linecap="round" stroke-linejoin="round"/>
<path fill-rule="evenodd" clip-rule="evenodd" d="M56.7782 1819.79C55.2117 1819.91 54 1821.22 54 1822.79V1834.04C54 1835.78 55.4823 1837.16 57.2217 1837.03L118.209 1832.51C119.863 1832.39 121.104 1830.95 120.979 1829.29L120.133 1818.1C120.009 1816.45 118.571 1815.21 116.92 1815.34L56.7782 1819.79Z" fill="#F0F0F0" stroke="#000047" stroke-width="1.33333" stroke-miterlimit="10" stroke-linecap="round" stroke-linejoin="round"/>
<path fill-rule="evenodd" clip-rule="evenodd" d="M84.2363 1844.79H103.688C104.273 1844.79 104.729 1844.29 104.668 1843.7C104.611 1843.16 104.129 1842.77 103.589 1842.83L84.2363 1844.79Z" fill="#F0F0F0" stroke="#000047" stroke-width="1.33333" stroke-miterlimit="10" stroke-linecap="round" stroke-linejoin="round"/>
<path fill-rule="evenodd" clip-rule="evenodd" d="M144.353 1757.48C142.698 1757.58 141.436 1759 141.536 1760.66L145.603 1828.22C145.703 1829.88 147.125 1831.14 148.779 1831.04L161.068 1830.3C162.722 1830.2 163.982 1828.78 163.882 1827.12L159.793 1759.57C159.693 1757.92 158.274 1756.66 156.621 1756.76L144.353 1757.48Z" fill="#F0F0F0" stroke="#000047" stroke-width="1.33333" stroke-miterlimit="10" stroke-linecap="round" stroke-linejoin="round"/>
<path fill-rule="evenodd" clip-rule="evenodd" d="M250.633 1799.18C248.978 1799.24 247.685 1800.63 247.746 1802.28L248.175 1814.09C248.235 1815.75 249.626 1817.04 251.282 1816.98L320.577 1814.46C322.234 1814.4 323.528 1813.01 323.466 1811.35L322.982 1798.35C322.92 1796.7 321.529 1795.4 319.874 1795.47L314.48 1795.66C312.84 1795.72 311.463 1794.44 311.403 1792.8C311.344 1791.17 309.968 1789.89 308.33 1789.94L298.742 1790.29C297.097 1790.35 295.812 1791.73 295.872 1793.37C295.931 1795.02 294.646 1796.4 293.002 1796.46L276.559 1797.04C275.081 1797.1 273.838 1795.95 273.777 1794.47C273.717 1792.99 272.471 1791.84 270.992 1791.89L261.732 1792.24C260.078 1792.3 258.787 1793.69 258.846 1795.34L258.865 1795.87C258.925 1797.53 257.632 1798.92 255.977 1798.98L250.633 1799.18Z" fill="#F0F0F0" stroke="#000047" stroke-width="1.33333" stroke-miterlimit="10" stroke-linecap="round" stroke-linejoin="round"/>
<path fill-rule="evenodd" clip-rule="evenodd" d="M223.948 1405.32C222.292 1405.35 220.97 1406.71 220.995 1408.37L221.122 1416.63C221.147 1418.28 222.508 1419.61 224.163 1419.58L231.329 1419.48C232.987 1419.46 234.312 1418.1 234.287 1416.44L234.16 1408.16C234.135 1406.51 232.771 1405.18 231.114 1405.21L223.948 1405.32Z" fill="#F0F0F0" stroke="#000047" stroke-width="1.33333" stroke-miterlimit="10" stroke-linecap="round" stroke-linejoin="round"/>
<path fill-rule="evenodd" clip-rule="evenodd" d="M217.688 1433C216.032 1433.06 214.735 1434.45 214.792 1436.1L219.608 1576.78C219.665 1578.43 221.052 1579.73 222.707 1579.67L270.513 1578.07C272.17 1578.01 273.468 1576.62 273.411 1574.97L268.573 1434.27C268.516 1432.62 267.129 1431.32 265.473 1431.38L217.688 1433Z" fill="#F0F0F0" stroke="#000047" stroke-width="1.33333" stroke-miterlimit="10" stroke-linecap="round" stroke-linejoin="round"/>
<path fill-rule="evenodd" clip-rule="evenodd" d="M299.033 1409.48C297.376 1409.53 296.075 1410.91 296.126 1412.57L297.745 1465.14C297.796 1466.79 299.179 1468.1 300.834 1468.04L369.324 1465.96C370.981 1465.91 372.283 1464.53 372.232 1462.87L370.593 1410.3C370.541 1408.64 369.158 1407.34 367.503 1407.39L299.033 1409.48Z" fill="#F0F0F0" stroke="#000047" stroke-width="1.33333" stroke-miterlimit="10" stroke-linecap="round" stroke-linejoin="round"/>
<path fill-rule="evenodd" clip-rule="evenodd" d="M405.12 1599.46C403.463 1599.47 402.131 1600.83 402.144 1602.48L402.179 1607.18C402.191 1608.83 403.545 1610.17 405.203 1610.15L420.154 1610.04C421.811 1610.02 423.143 1608.67 423.131 1607.01L423.095 1602.32C423.083 1600.66 421.729 1599.33 420.072 1599.34L405.12 1599.46Z" fill="#F0F0F0" stroke="#000047" stroke-width="1.33333" stroke-miterlimit="10" stroke-linecap="round" stroke-linejoin="round"/>
<path fill-rule="evenodd" clip-rule="evenodd" d="M349.649 1706.27C347.999 1706.44 346.802 1707.92 346.977 1709.57L348.027 1719.47C348.202 1721.11 349.676 1722.31 351.322 1722.13L430.541 1713.87C432.191 1713.7 433.388 1712.22 433.213 1710.57L432.163 1700.67C431.989 1699.02 430.514 1697.83 428.869 1698L349.649 1706.27Z" fill="#F0F0F0" stroke="#000047" stroke-width="1.33333" stroke-miterlimit="10" stroke-linecap="round" stroke-linejoin="round"/>
<path fill-rule="evenodd" clip-rule="evenodd" d="M408.039 1844.81H426.357C426.963 1844.81 427.434 1844.28 427.366 1843.68C427.303 1843.12 426.802 1842.72 426.245 1842.78L408.039 1844.81Z" fill="#F0F0F0" stroke="#000047" stroke-width="1.33333" stroke-miterlimit="10" stroke-linecap="round" stroke-linejoin="round"/>
<path fill-rule="evenodd" clip-rule="evenodd" d="M357.665 1792.74C356.016 1792.93 354.828 1794.41 355.014 1796.06L356.137 1806.03C356.322 1807.68 357.804 1808.86 359.448 1808.68L439.389 1799.82C441.038 1799.64 442.226 1798.15 442.04 1796.5L440.917 1786.53C440.732 1784.89 439.25 1783.7 437.605 1783.89L357.665 1792.74Z" fill="#F0F0F0" stroke="#000047" stroke-width="1.33333" stroke-miterlimit="10" stroke-linecap="round" stroke-linejoin="round"/>
<path fill-rule="evenodd" clip-rule="evenodd" d="M354.883 1769.37C353.231 1769.53 352.023 1771 352.185 1772.65L353.211 1783.06C353.373 1784.71 354.838 1785.92 356.484 1785.76L438.513 1777.84C440.162 1777.68 441.371 1776.22 441.21 1774.57L440.199 1764.15C440.039 1762.5 438.573 1761.3 436.925 1761.46L354.883 1769.37Z" fill="#F0F0F0" stroke="#000047" stroke-width="1.33333" stroke-miterlimit="10" stroke-linecap="round" stroke-linejoin="round"/>
<path fill-rule="evenodd" clip-rule="evenodd" d="M353.792 1747.18C352.141 1747.34 350.935 1748.82 351.101 1750.47L352.01 1759.51C352.176 1761.15 353.643 1762.35 355.289 1762.19L435.284 1754.32C436.935 1754.16 438.141 1752.69 437.976 1751.04L437.066 1741.98C436.901 1740.33 435.433 1739.13 433.787 1739.29L353.792 1747.18Z" fill="#F0F0F0" stroke="#000047" stroke-width="1.33333" stroke-miterlimit="10" stroke-linecap="round" stroke-linejoin="round"/>
<path fill-rule="evenodd" clip-rule="evenodd" d="M427.125 1720.67C425.469 1720.72 424.167 1722.1 424.22 1723.76L424.396 1729.36C424.449 1731.02 425.832 1732.32 427.488 1732.26L430.266 1732.18C431.921 1732.13 433.221 1730.75 433.172 1729.09L433.006 1723.49C432.957 1721.83 431.572 1720.53 429.915 1720.58L427.125 1720.67Z" fill="#F0F0F0" stroke="#000047" stroke-width="1.33333" stroke-miterlimit="10" stroke-linecap="round" stroke-linejoin="round"/>
<path fill-rule="evenodd" clip-rule="evenodd" d="M437.027 1589.11C437.018 1590.77 438.355 1592.12 440.012 1592.13L461.254 1592.23C462.911 1592.24 464.261 1590.91 464.269 1589.25L464.281 1586.93C464.289 1585.27 462.953 1583.92 461.296 1583.91L440.053 1583.8C438.397 1583.8 437.047 1585.13 437.038 1586.79L437.027 1589.11Z" fill="#F0F0F0" stroke="#000047" stroke-width="1.33333" stroke-miterlimit="10" stroke-linecap="round" stroke-linejoin="round"/>
<path fill-rule="evenodd" clip-rule="evenodd" d="M410.279 1493.89C408.623 1493.94 407.323 1495.33 407.377 1496.99L409.697 1567.85C409.751 1569.51 411.135 1570.81 412.79 1570.75L450.421 1569.56C452.078 1569.51 453.378 1568.12 453.324 1566.47L451.026 1495.58C450.972 1493.92 449.586 1492.62 447.931 1492.68L410.279 1493.89Z" fill="#F0F0F0" stroke="#000047" stroke-width="1.33333" stroke-miterlimit="10" stroke-linecap="round" stroke-linejoin="round"/>
<path fill-rule="evenodd" clip-rule="evenodd" d="M405.515 1421.9C403.859 1421.97 402.568 1423.36 402.633 1425.02L404.931 1483.48C404.996 1485.14 406.39 1486.43 408.044 1486.36L445.409 1484.92C447.066 1484.85 448.356 1483.46 448.291 1481.8L445.994 1423.34C445.929 1421.68 444.535 1420.39 442.88 1420.46L405.515 1421.9Z" fill="#F0F0F0" stroke="#000047" stroke-width="1.33333" stroke-miterlimit="10" stroke-linecap="round" stroke-linejoin="round"/>
<path fill-rule="evenodd" clip-rule="evenodd" d="M428.937 1393.52C427.279 1393.55 425.954 1394.91 425.98 1396.57L426.157 1407.99C426.183 1409.64 427.544 1410.96 429.199 1410.94L438.462 1410.81C440.12 1410.78 441.445 1409.42 441.419 1407.76L441.242 1396.35C441.217 1394.69 439.855 1393.37 438.2 1393.39L428.937 1393.52Z" fill="#F0F0F0" stroke="#000047" stroke-width="1.33333" stroke-miterlimit="10" stroke-linecap="round" stroke-linejoin="round"/>
<path fill-rule="evenodd" clip-rule="evenodd" d="M479.038 1415.88C477.381 1415.93 476.072 1417.3 476.115 1418.96L477.045 1454.56C477.088 1456.22 478.465 1457.53 480.121 1457.48L552.203 1455.62C553.859 1455.57 555.167 1454.19 555.124 1452.54L554.195 1416.96C554.151 1415.3 552.775 1413.99 551.119 1414.04L479.038 1415.88Z" fill="#F0F0F0" stroke="#000047" stroke-width="1.33333" stroke-miterlimit="10" stroke-linecap="round" stroke-linejoin="round"/>
<path fill-rule="evenodd" clip-rule="evenodd" d="M569.584 1410.59C567.927 1410.65 566.631 1412.04 566.688 1413.69L571.549 1553.78C571.607 1555.43 572.995 1556.73 574.65 1556.67L631.405 1554.73C633.062 1554.68 634.359 1553.29 634.301 1551.63L629.44 1411.55C629.382 1409.89 627.994 1408.6 626.339 1408.65L569.584 1410.59Z" fill="#F0F0F0" stroke="#000047" stroke-width="1.33333" stroke-miterlimit="10" stroke-linecap="round" stroke-linejoin="round"/>
<path fill-rule="evenodd" clip-rule="evenodd" d="M637.05 1520.77C635.394 1520.83 634.1 1522.22 634.157 1523.88L634.612 1536.88C634.669 1538.54 636.056 1539.83 637.71 1539.77L644.01 1539.56C645.667 1539.51 646.965 1538.12 646.907 1536.46L646.453 1523.44C646.396 1521.79 645.006 1520.49 643.349 1520.55L637.05 1520.77Z" fill="#F0F0F0" stroke="#000047" stroke-width="1.33333" stroke-miterlimit="10" stroke-linecap="round" stroke-linejoin="round"/>
<path fill-rule="evenodd" clip-rule="evenodd" d="M609.012 1656.97C607.355 1657.02 606.056 1658.41 606.111 1660.07L608.569 1733.98C608.624 1735.64 610.01 1736.93 611.666 1736.88L636.51 1736.06C638.166 1736 639.464 1734.62 639.41 1732.96L638.794 1714.28C638.739 1712.62 640.038 1711.23 641.694 1711.18L706.819 1709.05C708.474 1708.99 709.86 1710.29 709.916 1711.95L710.452 1727.93C710.508 1729.58 711.895 1730.88 713.55 1730.83L737.077 1730.04C738.733 1729.99 740.031 1728.6 739.976 1726.95L737.498 1653.08C737.442 1651.42 736.055 1650.13 734.399 1650.18L711.72 1650.94C710.064 1651 708.767 1652.38 708.822 1654.04L709.417 1671.8C709.472 1673.45 708.174 1674.84 706.517 1674.9L685.602 1675.58C683.947 1675.63 682.56 1674.34 682.506 1672.68L682.065 1659.34C682.01 1657.69 680.622 1656.39 678.965 1656.45L664.05 1656.95C662.395 1657.01 661.099 1658.39 661.153 1660.05L661.615 1674.25C661.669 1675.9 660.371 1677.29 658.715 1677.34L637.818 1678.03C636.164 1678.08 634.778 1676.78 634.722 1675.13L634.185 1659.15C634.13 1657.49 632.744 1656.19 631.089 1656.25L609.012 1656.97Z" fill="#F0F0F0" stroke="#000047" stroke-width="1.33333" stroke-miterlimit="10" stroke-linecap="round" stroke-linejoin="round"/>
<path fill-rule="evenodd" clip-rule="evenodd" d="M644.673 1713.66C643.016 1713.7 641.702 1715.07 641.739 1716.73L642.061 1731.1C642.098 1732.76 643.469 1734.07 645.125 1734.03L661.868 1733.67C663.524 1733.63 664.838 1732.26 664.802 1730.61L664.496 1716.23C664.461 1714.58 663.089 1713.26 661.432 1713.3L644.673 1713.66Z" fill="#F0F0F0" stroke="#000047" stroke-width="1.33333" stroke-miterlimit="10" stroke-linecap="round" stroke-linejoin="round"/>
<path fill-rule="evenodd" clip-rule="evenodd" d="M547.947 1726.44C546.29 1726.5 544.994 1727.89 545.053 1729.55L545.291 1736.34C545.349 1738 546.738 1739.29 548.393 1739.24L592.362 1737.71C594.018 1737.65 595.314 1736.26 595.256 1734.61L595.018 1727.81C594.959 1726.15 593.571 1724.86 591.915 1724.92L547.947 1726.44Z" fill="#F0F0F0" stroke="#000047" stroke-width="1.33333" stroke-miterlimit="10" stroke-linecap="round" stroke-linejoin="round"/>
<path fill-rule="evenodd" clip-rule="evenodd" d="M589.951 1698.78C588.293 1698.81 586.973 1700.18 587.002 1701.83L587.244 1715.46C587.273 1717.12 588.639 1718.44 590.295 1718.41L594.471 1718.34C596.128 1718.31 597.448 1716.94 597.419 1715.28L597.177 1701.66C597.148 1700 595.782 1698.68 594.127 1698.71L589.951 1698.78Z" fill="#F0F0F0" stroke="#000047" stroke-width="1.33333" stroke-miterlimit="10" stroke-linecap="round" stroke-linejoin="round"/>
<path fill-rule="evenodd" clip-rule="evenodd" d="M537.788 1842.12C537.953 1843.64 539.239 1844.79 540.771 1844.79H566.372L702.513 1830.23C702.824 1830.19 703.049 1829.91 703.014 1829.6L700.949 1810.64C700.769 1809 699.292 1807.81 697.647 1807.98L538.95 1824.95C537.301 1825.13 536.108 1826.61 536.286 1828.26L537.788 1842.12Z" fill="#F0F0F0" stroke="#000047" stroke-width="1.33333" stroke-miterlimit="10" stroke-linecap="round" stroke-linejoin="round"/>
<path fill-rule="evenodd" clip-rule="evenodd" d="M615.976 1756.36C615.869 1756.68 615.815 1757.01 615.816 1757.34L615.82 1759.4C615.821 1759.73 615.878 1760.07 615.989 1760.38L616.665 1762.32C616.777 1762.63 616.94 1762.93 617.15 1763.19L618.454 1764.83C618.658 1765.09 618.903 1765.31 619.178 1765.49L620.929 1766.61C621.203 1766.79 621.503 1766.92 621.818 1767L623.855 1767.51C624.183 1767.6 624.522 1767.62 624.859 1767.59L626.937 1767.41C627.264 1767.38 627.584 1767.29 627.884 1767.16L629.796 1766.31C630.095 1766.18 630.372 1766 630.613 1765.78L632.146 1764.36C632.389 1764.14 632.593 1763.88 632.75 1763.59L633.737 1761.77C633.895 1761.48 634.004 1761.16 634.059 1760.83L634.399 1758.78C634.454 1758.45 634.453 1758.11 634.396 1757.78L634.047 1755.75C633.991 1755.43 633.88 1755.11 633.719 1754.82L632.724 1753.01C632.563 1752.72 632.354 1752.45 632.105 1752.23L630.559 1750.83C630.316 1750.61 630.04 1750.44 629.74 1750.31L627.802 1749.47C627.498 1749.34 627.175 1749.26 626.845 1749.23L624.765 1749.07C624.434 1749.04 624.101 1749.07 623.78 1749.15L621.747 1749.68C621.432 1749.76 621.132 1749.89 620.86 1750.07L619.118 1751.21C618.84 1751.39 618.593 1751.62 618.389 1751.88L617.12 1753.51C616.915 1753.77 616.756 1754.07 616.649 1754.39L615.976 1756.36Z" fill="#F0F0F0" stroke="#000047" stroke-width="1.33333" stroke-miterlimit="10" stroke-linecap="round" stroke-linejoin="round"/>
<path fill-rule="evenodd" clip-rule="evenodd" d="M751.464 1718.19C749.807 1718.22 748.49 1719.59 748.52 1721.24L748.655 1728.58C748.686 1730.23 750.054 1731.55 751.711 1731.52L763.853 1731.3C765.509 1731.26 766.827 1729.9 766.797 1728.24L766.662 1720.91C766.631 1719.25 765.263 1717.93 763.606 1717.96L751.464 1718.19Z" fill="#F0F0F0" stroke="#000047" stroke-width="1.33333" stroke-miterlimit="10" stroke-linecap="round" stroke-linejoin="round"/>
<path fill-rule="evenodd" clip-rule="evenodd" d="M690.25 1403.86C688.594 1403.93 687.305 1405.33 687.373 1406.98L693.25 1550.57C693.318 1552.22 694.714 1553.51 696.368 1553.44L731.926 1552.02C733.583 1551.95 734.871 1550.56 734.804 1548.9L728.947 1405.31C728.88 1403.66 727.485 1402.37 725.83 1402.44L690.25 1403.86Z" fill="#F0F0F0" stroke="#000047" stroke-width="1.33333" stroke-miterlimit="10" stroke-linecap="round" stroke-linejoin="round"/>
<path fill-rule="evenodd" clip-rule="evenodd" d="M788.303 1472.72C786.647 1472.8 785.366 1474.21 785.445 1475.86L785.666 1480.54C785.744 1482.2 787.147 1483.47 788.8 1483.4L794.746 1483.12C796.403 1483.05 797.683 1481.64 797.605 1479.98L797.384 1475.31C797.306 1473.65 795.903 1472.38 794.249 1472.45L788.303 1472.72Z" fill="#F0F0F0" stroke="#000047" stroke-width="1.33333" stroke-miterlimit="10" stroke-linecap="round" stroke-linejoin="round"/>
<path fill-rule="evenodd" clip-rule="evenodd" d="M794.438 1572.84C792.783 1572.92 791.506 1574.32 791.587 1575.98L792.085 1586.28C792.165 1587.93 793.571 1589.21 795.226 1589.13L841.768 1586.88C843.423 1586.8 844.7 1585.4 844.62 1583.74L844.121 1573.44C844.041 1571.79 842.635 1570.51 840.98 1570.59L794.438 1572.84Z" fill="#F0F0F0" stroke="#000047" stroke-width="1.33333" stroke-miterlimit="10" stroke-linecap="round" stroke-linejoin="round"/>
<path fill-rule="evenodd" clip-rule="evenodd" d="M760.021 1398.27C758.365 1398.32 757.062 1399.7 757.112 1401.36L758.194 1437.26C758.244 1438.91 759.626 1440.22 761.282 1440.17L853.918 1437.41C855.574 1437.36 856.877 1435.98 856.827 1434.32L855.745 1398.42C855.695 1396.77 854.313 1395.47 852.657 1395.52L760.021 1398.27Z" fill="#F0F0F0" stroke="#000047" stroke-width="1.33333" stroke-miterlimit="10" stroke-linecap="round" stroke-linejoin="round"/>
<path fill-rule="evenodd" clip-rule="evenodd" d="M871.896 1365.97C870.24 1366.03 868.944 1367.41 869 1369.07L869.302 1377.94C869.358 1379.6 870.747 1380.89 872.403 1380.84L880.751 1380.55C882.409 1380.49 883.705 1379.1 883.647 1377.44L883.331 1368.57C883.273 1366.92 881.885 1365.63 880.23 1365.68L871.896 1365.97Z" fill="#F0F0F0" stroke="#000047" stroke-width="1.33333" stroke-miterlimit="10" stroke-linecap="round" stroke-linejoin="round"/>
<path fill-rule="evenodd" clip-rule="evenodd" d="M887.654 1390.72C885.998 1390.78 884.711 1392.18 884.781 1393.84L890.651 1532.96C890.721 1534.62 892.119 1535.9 893.773 1535.83L951.336 1533.44C952.992 1533.37 954.279 1531.98 954.209 1530.32L948.36 1391.2C948.29 1389.54 946.893 1388.26 945.238 1388.33L887.654 1390.72Z" fill="#F0F0F0" stroke="#000047" stroke-width="1.33333" stroke-miterlimit="10" stroke-linecap="round" stroke-linejoin="round"/>
<path fill-rule="evenodd" clip-rule="evenodd" d="M1079.3 1447.77C1078.74 1449.14 1079.26 1450.71 1080.53 1451.48L1085.41 1454.43C1086 1454.79 1086.42 1455.38 1086.56 1456.06L1089.81 1471.84C1089.82 1471.91 1089.73 1471.94 1089.69 1471.88C1089.66 1471.82 1089.56 1471.85 1089.58 1471.92L1092.99 1488.5C1093.04 1488.75 1093.13 1489 1093.26 1489.23L1101.6 1504.41C1102.23 1505.56 1103.54 1506.17 1104.82 1505.91L1113.39 1504.17C1113.68 1504.11 1113.96 1504.01 1114.22 1503.86L1116.07 1502.86C1116.34 1502.72 1116.62 1502.62 1116.91 1502.56L1161.43 1493.51C1161.73 1493.45 1162.01 1493.35 1162.27 1493.21L1169.3 1489.39C1170.75 1488.61 1172.56 1489.14 1173.36 1490.58L1176.23 1495.79C1176.86 1496.94 1178.17 1497.54 1179.45 1497.28L1188.78 1495.38C1189.66 1495.2 1190.59 1495.43 1191.28 1496.01L1197.67 1501.28C1198.82 1502.23 1200.49 1502.19 1201.59 1501.19L1219.02 1485.39C1219.81 1484.68 1220.16 1483.6 1219.94 1482.56L1216.61 1466.39C1216.55 1466.1 1216.45 1465.82 1216.3 1465.56L1213.49 1460.45C1212.86 1459.29 1211.55 1458.69 1210.27 1458.95L1202.49 1460.54C1201.2 1460.8 1199.89 1460.19 1199.26 1459.04L1196.68 1454.36C1196.04 1453.21 1194.74 1452.6 1193.45 1452.86L1183.81 1454.82C1181.99 1455.19 1180.27 1453.82 1180.22 1451.96L1180.04 1445.33C1180.02 1444.69 1179.8 1444.07 1179.4 1443.56L1167.41 1428.23C1167.1 1427.84 1166.69 1427.52 1166.23 1427.32L1153.35 1421.79C1152.83 1421.56 1152.38 1421.2 1152.06 1420.73L1147.17 1413.61L1141.22 1402.77C1140.43 1401.32 1138.61 1400.79 1137.16 1401.58L1096.21 1423.8C1095.86 1423.99 1096.06 1424.51 1096.44 1424.44C1096.63 1424.4 1096.81 1424.52 1096.85 1424.7L1097.38 1427.26C1097.76 1429.13 1096.3 1430.86 1094.4 1430.81L1088.4 1430.64C1087.15 1430.61 1086.02 1431.35 1085.54 1432.51L1079.3 1447.77Z" fill="#F0F0F0" stroke="#000047" stroke-width="1.33333" stroke-miterlimit="10" stroke-linecap="round" stroke-linejoin="round"/>
<path fill-rule="evenodd" clip-rule="evenodd" d="M1226.62 1807.72C1226.38 1809.36 1227.51 1810.89 1229.15 1811.13L1280.65 1818.73C1282.29 1818.97 1283.81 1817.84 1284.06 1816.2L1289.68 1778.45C1289.93 1776.81 1288.79 1775.29 1287.15 1775.04L1235.66 1767.45C1234.02 1767.2 1232.49 1768.33 1232.25 1769.97L1226.62 1807.72Z" fill="#F0F0F0" stroke="#000047" stroke-width="1.33333" stroke-miterlimit="10" stroke-linecap="round" stroke-linejoin="round"/>
<path fill-rule="evenodd" clip-rule="evenodd" d="M1258.94 1711.56C1258.69 1713.2 1259.82 1714.74 1261.46 1714.98L1301.19 1720.97C1302.83 1721.22 1304.35 1720.09 1304.6 1718.46L1311.96 1670.29C1312.21 1668.65 1311.08 1667.12 1309.44 1666.87L1269.71 1660.89C1268.07 1660.64 1266.55 1661.76 1266.3 1663.4L1258.94 1711.56Z" fill="#F0F0F0" stroke="#000047" stroke-width="1.33333" stroke-miterlimit="10" stroke-linecap="round" stroke-linejoin="round"/>
<path fill-rule="evenodd" clip-rule="evenodd" d="M1215.41 1743.7C1215.11 1745.34 1216.2 1746.9 1217.83 1747.2L1240.03 1751.21C1241.66 1751.5 1243.22 1750.42 1243.52 1748.8L1247.49 1727.07C1247.79 1725.44 1246.7 1723.87 1245.07 1723.58L1222.86 1719.56C1221.24 1719.27 1219.68 1720.35 1219.38 1721.98L1215.41 1743.7Z" fill="#F0F0F0" stroke="#000047" stroke-width="1.33333" stroke-miterlimit="10" stroke-linecap="round" stroke-linejoin="round"/>
<path fill-rule="evenodd" clip-rule="evenodd" d="M1172.3 1695.37C1172.02 1697.01 1173.12 1698.56 1174.76 1698.83L1184.32 1700.44C1185.96 1700.72 1187.06 1702.27 1186.78 1703.9L1185.92 1708.98C1185.64 1710.61 1186.75 1712.16 1188.38 1712.44L1278.75 1727.69C1280.38 1727.96 1281.93 1726.86 1282.21 1725.23L1282.67 1722.47C1282.95 1720.83 1281.85 1719.29 1280.22 1719.01L1219.77 1708.81C1218.14 1708.53 1217.04 1706.98 1217.32 1705.34L1225.96 1654.86C1226.24 1653.22 1225.13 1651.67 1223.5 1651.39L1184 1644.72C1182.37 1644.45 1180.83 1645.54 1180.55 1647.17L1172.3 1695.37Z" fill="#F0F0F0" stroke="#000047" stroke-width="1.33333" stroke-miterlimit="10" stroke-linecap="round" stroke-linejoin="round"/>
<path fill-rule="evenodd" clip-rule="evenodd" d="M1271.89 1369.99C1270.53 1370.95 1270.2 1372.83 1271.17 1374.19L1278.5 1384.5C1279.47 1385.86 1279.14 1387.74 1277.78 1388.7L1272.38 1392.48C1271.02 1393.44 1270.69 1395.32 1271.66 1396.68L1289.96 1422.39C1290.91 1423.74 1292.78 1424.06 1294.13 1423.11L1301.16 1418.16C1302.51 1417.21 1304.37 1417.53 1305.33 1418.88L1313.97 1431.02C1314.92 1432.36 1316.79 1432.68 1318.14 1431.73L1324.39 1427.34C1325.74 1426.4 1327.6 1426.71 1328.55 1428.06L1330.44 1430.7C1331.39 1432.04 1333.25 1432.36 1334.6 1431.41L1353.56 1418.11C1354.92 1417.15 1355.25 1415.27 1354.28 1413.91L1351.03 1409.35C1350.06 1407.99 1350.38 1406.11 1351.75 1405.15L1355.96 1402.19C1357.32 1401.24 1357.65 1399.35 1356.68 1398L1346.96 1384.36C1345.99 1383 1346.32 1381.12 1347.68 1380.16L1351.49 1377.49C1352.85 1376.54 1353.17 1374.65 1352.21 1373.3L1325.62 1335.9C1324.67 1334.56 1322.8 1334.24 1321.45 1335.19L1271.89 1369.99Z" fill="#F0F0F0" stroke="#000047" stroke-width="1.33333" stroke-miterlimit="10" stroke-linecap="round" stroke-linejoin="round"/>
<path fill-rule="evenodd" clip-rule="evenodd" d="M1392.35 1593.89C1392.28 1595.54 1393.57 1596.94 1395.23 1597.01L1402.62 1597.31C1404.27 1597.37 1405.66 1596.09 1405.73 1594.43L1406.42 1577.85C1406.49 1576.2 1405.2 1574.8 1403.55 1574.73L1396.16 1574.43C1394.5 1574.37 1393.11 1575.65 1393.04 1577.31L1392.35 1593.89Z" fill="#F0F0F0" stroke="#000047" stroke-width="1.33333" stroke-miterlimit="10" stroke-linecap="round" stroke-linejoin="round"/>
<path fill-rule="evenodd" clip-rule="evenodd" d="M1321.86 1630.46C1321.7 1632.11 1322.9 1633.58 1324.55 1633.74L1332.81 1634.55C1334.46 1634.72 1335.92 1633.51 1336.09 1631.87L1336.43 1628.39C1336.6 1626.74 1335.39 1625.27 1333.74 1625.11L1325.48 1624.31C1323.83 1624.15 1322.37 1625.35 1322.21 1627L1321.86 1630.46Z" fill="#F0F0F0" stroke="#000047" stroke-width="1.33333" stroke-miterlimit="10" stroke-linecap="round" stroke-linejoin="round"/>
<path fill-rule="evenodd" clip-rule="evenodd" d="M1325.05 1729.32C1324.89 1730.97 1326.09 1732.44 1327.74 1732.61L1373.58 1737.15C1375.22 1737.31 1376.69 1736.11 1376.86 1734.46L1384.5 1658.23C1384.67 1656.58 1383.46 1655.11 1381.81 1654.94L1335.96 1650.4C1334.31 1650.24 1332.84 1651.44 1332.68 1653.09L1325.05 1729.32Z" fill="#F0F0F0" stroke="#000047" stroke-width="1.33333" stroke-miterlimit="10" stroke-linecap="round" stroke-linejoin="round"/>
<path fill-rule="evenodd" clip-rule="evenodd" d="M1314.43 1820.35C1314.17 1821.99 1315.29 1823.53 1316.93 1823.78L1367.7 1831.75C1369.33 1832.01 1370.87 1830.89 1371.13 1829.26L1377.1 1791.64C1377.36 1790 1376.24 1788.46 1374.6 1788.21L1323.85 1780.24C1322.22 1779.98 1320.68 1781.09 1320.42 1782.73L1314.43 1820.35Z" fill="#F0F0F0" stroke="#000047" stroke-width="1.33333" stroke-miterlimit="10" stroke-linecap="round" stroke-linejoin="round"/>
<path fill-rule="evenodd" clip-rule="evenodd" d="M1390.45 1750.98C1390.37 1752.64 1391.66 1754.04 1393.32 1754.11L1404.05 1754.57C1405.71 1754.64 1407.1 1753.36 1407.18 1751.71L1407.44 1745.84C1407.51 1744.18 1406.23 1742.78 1404.57 1742.71L1393.83 1742.25C1392.18 1742.18 1390.78 1743.46 1390.71 1745.11L1390.45 1750.98Z" fill="#F0F0F0" stroke="#000047" stroke-width="1.33333" stroke-miterlimit="10" stroke-linecap="round" stroke-linejoin="round"/>
</g>
</g>
<defs>
<filter id="filter0_d_128_3" x="53.334" y="412.334" width="2140.58" height="1433.14" filterUnits="userSpaceOnUse" color-interpolation-filters="sRGB">
<feFlood flood-opacity="0" result="BackgroundImageFix"/>
<feColorMatrix in="SourceAlpha" type="matrix" values="0 0 0 0 0 0 0 0 0 0 0 0 0 0 0 0 0 0 127 0" result="hardAlpha"/>
<feOffset dx="5"/>
<feComposite in2="hardAlpha" operator="out"/>
<feColorMatrix type="matrix" values="0 0 0 0 0 0 0 0 0 0 0 0 0 0 0 0 0 0 1 0"/>
<feBlend mode="normal" in2="BackgroundImageFix" result="effect1_dropShadow_128_3"/>
<feBlend mode="normal" in="SourceGraphic" in2="effect1_dropShadow_128_3" result="shape"/>
</filter>
</defs>
</svg>
